<svg width="2386" height="1195" viewBox="0 0 2386 1195" fill="none" xmlns="http://www.w3.org/2000/svg">
<path d="M2029.76 267.655C2134.85 300.014 2254.24 336.772 2385.38 347.501V501.986H3.75196e-05V347.501C97.1579 340.112 191.326 299.871 275.909 263.725C402.503 209.627 507.626 164.704 569.169 252.828C634.315 346.113 678.607 335.893 728.628 324.35C757.434 317.703 788.14 310.617 825.823 322.606C1040.88 391.026 1159.33 355 1255.36 325.795C1343.01 299.137 1411.97 278.163 1518.66 347.501C1643.8 428.834 1646.39 393.143 1650.36 338.333C1653.49 295.227 1657.47 240.294 1722.6 221.165C1802.53 197.692 1906.28 229.638 2029.76 267.655Z" fill="url(#paint0_linear)"/>
<path d="M2385.38 501.986H3.75196e-05L0 784.98H2385.38V501.986Z" fill="url(#paint1_linear)"/>
<path fill-rule="evenodd" clip-rule="evenodd" d="M355.619 386.652C250.523 419.011 131.139 455.769 0 466.498V620.983H2385.38V466.498C2288.22 459.109 2194.05 418.868 2109.47 382.722C1982.87 328.624 1877.75 283.701 1816.21 371.825C1751.06 465.11 1706.77 454.89 1656.75 443.347C1627.94 436.7 1597.24 429.614 1559.55 441.603C1344.49 510.023 1226.04 473.997 1130.02 444.792C1042.37 418.134 973.406 397.16 866.716 466.498C741.571 547.831 738.984 512.14 735.012 457.33C731.888 414.224 727.907 359.291 662.772 340.162C582.847 316.689 479.094 348.635 355.619 386.652ZM2385.38 620.984H0V814.979H2385.38V620.984Z" fill="#9EB9DC"/>
<rect y="615" width="2385.38" height="579" fill="url(#paint2_linear)"/>
<path d="M1913.38 614.729C1857.23 597.126 1770.51 602.431 1668.76 608.656C1615.36 611.923 1557.81 615.444 1498.38 616.039C1482.62 616.197 1467.4 616.721 1452.39 617.237C1373.74 619.945 1300.86 622.455 1186.84 571.009C969.729 473.049 816.578 512.702 654.988 554.541L654.947 554.551C613.076 565.392 569.5 577 528 591C504 601.5 493 606.5 473 615.5V1194.03H1913L1913.38 774.031V614.729Z" fill="url(#paint3_linear)"/>
<path fill-rule="evenodd" clip-rule="evenodd" d="M1417.91 568.002C1417.08 568.448 1416.13 568.758 1415.08 568.969V632.145H1403.02V568.468C1400.43 561.388 1389.59 548.866 1378.77 536.353C1358.03 512.388 1337.32 488.459 1374.65 502.864C1362.96 476.725 1354.74 452.693 1364.59 439.993C1364.89 439.605 1365.19 439.216 1365.49 438.828C1373.44 428.543 1381.03 418.719 1392.09 430.195C1394.07 432.247 1396.22 433.728 1398.42 434.8C1394.22 420.376 1406 401.626 1429.5 428.99C1436.24 436.832 1438.77 441.533 1439.51 444.123C1441.28 442.313 1445.95 440.04 1457 438.788C1494.41 434.547 1492.42 454.755 1446.94 501.658C1525.36 491.962 1444.58 560.4 1418.33 567.988C1418.19 567.992 1418.05 567.997 1417.91 568.002Z" fill="#4273B4"/>
<path fill-rule="evenodd" clip-rule="evenodd" d="M537.274 562.603C536.828 562.842 536.319 563.008 535.752 563.122V596.999H529.285V562.851C527.897 559.054 522.087 552.34 516.282 545.631C505.162 532.78 494.059 519.948 514.075 527.673C507.807 513.656 503.401 500.769 508.682 493.959C508.844 493.75 509.005 493.542 509.166 493.334C513.427 487.819 517.498 482.551 523.427 488.704C524.487 489.805 525.64 490.599 526.823 491.174C524.571 483.439 530.888 473.384 543.489 488.058C547.101 492.263 548.46 494.784 548.856 496.173C549.803 495.203 552.31 493.984 558.234 493.312C578.296 491.038 577.229 501.874 552.841 527.026C594.893 521.827 551.572 558.526 537.501 562.595C537.425 562.597 537.349 562.6 537.274 562.603Z" fill="#315787"/>
<path fill-rule="evenodd" clip-rule="evenodd" d="M1733.27 584.047C1732.83 584.286 1732.32 584.453 1731.75 584.566V618.444H1725.28V584.295C1723.89 580.498 1718.09 573.784 1712.28 567.076C1701.16 554.225 1690.06 541.392 1710.07 549.117C1703.8 535.1 1699.4 522.213 1704.68 515.403C1704.84 515.195 1705 514.986 1705.16 514.778C1709.43 509.263 1713.5 503.995 1719.43 510.149C1720.49 511.249 1721.64 512.043 1722.82 512.618C1720.57 504.883 1726.89 494.829 1739.49 509.502C1743.1 513.708 1744.46 516.229 1744.85 517.617C1745.8 516.647 1748.31 515.428 1754.23 514.756C1774.29 512.482 1773.23 523.319 1748.84 548.471C1790.89 543.271 1747.57 579.97 1733.5 584.039C1733.42 584.042 1733.35 584.044 1733.27 584.047Z" fill="#315787"/>
<path fill-rule="evenodd" clip-rule="evenodd" d="M1619.95 583.59C1619.3 583.938 1618.56 584.18 1617.74 584.345V633.725H1608.31V583.956C1606.29 578.423 1597.82 568.634 1589.36 558.852C1573.15 540.121 1556.96 521.417 1586.14 532.676C1577 512.245 1570.58 493.461 1578.28 483.535C1578.51 483.231 1578.75 482.928 1578.98 482.625L1578.98 482.624C1585.2 474.585 1591.13 466.907 1599.77 475.876C1601.32 477.48 1603 478.638 1604.72 479.476C1601.44 468.202 1610.65 453.546 1629.01 474.934C1634.28 481.064 1636.26 484.738 1636.84 486.763C1638.22 485.348 1641.87 483.571 1650.51 482.593C1679.75 479.278 1678.19 495.073 1642.65 531.734C1703.94 524.155 1640.8 577.647 1620.29 583.578C1620.17 583.582 1620.06 583.586 1619.95 583.59Z" fill="#4273B4"/>
<path d="M648.803 407.278L633.522 611.835C638.005 609.174 641.97 606.644 645.775 604.215C656.628 597.289 666.182 591.192 682.738 585.249C689.639 547.92 691.057 528.17 693.472 494.533L693.472 494.531C693.888 488.73 694.334 482.516 694.843 475.728C702.758 473.729 707.536 473.045 716.474 472.355C726.769 472.968 732.556 473.323 745.249 475.728C772.072 495.4 789.614 507.004 814.905 522.321C843.288 524.175 859.067 524.588 886.942 523.941V492.791L891.52 486.086L889.125 484.169L879.798 475.728L871.066 466.998L840.505 487.955C823.809 487.011 814.368 485.87 797.442 483.069L798.037 471.165L799.426 450.332L783.749 447.356L781.367 481.35L771.643 473.347C760.136 463.616 753.374 456.603 743.759 446.633C742.222 445.039 740.613 443.37 738.899 441.602C713.158 450.851 698.673 455.886 672.419 463.625V447.356V414.42C663.579 412.425 658.562 411.178 648.803 407.278Z" fill="#4273B4"/>
<path d="M938.738 489.418L954.66 497.72L956.524 553.022C966.266 551.199 972.578 551.322 983.355 551.89L982 526.303C998.198 526.881 1007.28 526.789 1023.48 526.123L1022.09 507.076L1025.28 502.91L1023.45 501.124L1020.5 498.545L1009.19 487.236L990.533 504.808C980.018 504.633 974.261 504.165 964.139 502.91L958.456 496.759L951.835 488.734L947.271 483.247L943.103 477.911L930.8 489.418H938.738Z" fill="#4273B4"/>
<path d="M1110 530.687L1102.46 529.893L1093.92 526.123C1085.66 521.499 1083.35 519.525 1079.44 516.171C1077.83 514.79 1076 513.141 1073.32 511.011L1078.25 547.75C1091.86 550.199 1097.48 549.686 1108.16 548.711C1108.76 548.656 1109.37 548.6 1110 548.544V530.687Z" fill="#4273B4"/>
<path d="M1049.08 502.899L1057.61 503.693L1073.32 511.011L1070.2 507.364L1067.13 503.693L1060.98 495.757L1058.2 491.392L1049.08 502.899Z" fill="#4273B4"/>
<path d="M633.523 611.835L648.803 407.278C638.257 406.422 632.287 407.582 621.616 410.254C620.952 419.56 620.344 428.386 619.762 436.842C615.412 500.033 610.61 556.929 596.13 626.129C610 627.363 621.054 620.365 633.523 611.835Z" fill="#315787"/>
<path d="M781.368 481.35L783.749 447.356L773.033 454.102L771.644 473.347L781.368 481.35Z" fill="#315787"/>
<path d="M672.419 463.625C698.673 455.886 713.158 450.851 738.899 441.602C712.614 445.027 698.093 446.162 672.419 447.356V463.625Z" fill="#315787"/>
<path d="M891.52 486.086L896.468 486.683V471.165L889.126 472.355V484.169L891.52 486.086Z" fill="#315787"/>
<path d="M930.8 489.418L943.104 477.911C938.381 479.079 934.304 480.105 930.467 481.071C921.991 483.205 914.692 485.042 904.208 487.46C904.733 487.51 905.25 487.559 905.761 487.606C914.256 488.394 920.918 488.833 930.8 489.418Z" fill="#315787"/>
<path d="M951.836 482.474L947.272 483.247L951.836 488.734V482.474Z" fill="#315787"/>
<path d="M990.534 504.808L1009.19 487.236C996.724 490.549 989.735 492.362 977.237 494.775V498.545L982 499.14L990.534 504.808Z" fill="#315787"/>
<path d="M840.506 487.955L871.067 466.998C857.86 471.114 850.496 473.147 837.529 475.728L840.506 487.955Z" fill="#315787"/>
<path d="M972.078 497.95V484.656L966.521 485.252V497.464L972.078 497.95Z" fill="#315787"/>
<path d="M1025.28 502.91L1026.65 501.124L1049.08 502.91L1058.2 491.402L1055.03 491.831C1047.02 494.109 1040.58 495.133 1033.73 496.222C1029.61 496.877 1025.34 497.556 1020.5 498.545L1023.45 501.124L1025.28 502.91Z" fill="#315787"/>
<path d="M1058.2 491.402L1060.98 495.767V487.236L1055.03 488.823V491.831L1058.2 491.402Z" fill="#315787"/>
<path d="M1060.98 487.236V495.767L1067.14 503.703L1070.2 507.374L1073.32 511.011C1076 513.141 1077.84 514.79 1079.45 516.171C1083.36 519.525 1085.66 521.499 1093.93 526.123C1093.05 522.435 1093.35 517.499 1093.65 512.678C1093.82 509.891 1093.99 507.143 1093.93 504.695C1084.87 504.6 1079.06 503.968 1069.95 502.91V493.981H1066.74V487.236H1060.98Z" fill="#315787"/>
<path d="M837.529 475.728C822.086 474.324 813.44 473.273 798.037 471.165L797.442 483.069C814.368 485.87 823.809 487.011 840.505 487.955L837.529 475.728Z" fill="#3A659D"/>
<path d="M904.208 487.46V472.355L896.468 471.165V486.683C899.276 486.977 901.822 487.233 904.208 487.46Z" fill="#3A659D"/>
<path d="M964.14 502.91C974.261 504.165 980.019 504.633 990.533 504.808L982 499.14L977.237 498.545V494.775V485.252L972.078 484.656V497.95L966.521 497.464C966.521 497.464 961.63 497.087 958.457 496.759L964.14 502.91Z" fill="#3A659D"/>
<path d="M958.457 483.247L951.836 482.474V488.734L958.457 496.759V488.029V483.247Z" fill="#3A659D"/>
<path d="M715.761 471.72L711.393 577.296C785.048 573.02 826.064 568.778 898.83 558.642L898.849 530.859C872.24 532.531 857.123 532.8 829.534 530.859C824.084 527.619 819.026 524.592 814.245 521.697C788.94 506.376 771.388 494.769 744.552 475.093C731.851 472.688 726.061 472.333 715.761 471.72Z" fill="#B6CAE4"/>
<path d="M913.048 493.376L913.049 563.38C930.491 563.278 940.07 562.077 956.93 558.617L956.732 553.061L954.729 497.308C938.461 496.731 929.349 496.021 913.048 493.376Z" fill="#B6CAE4"/>
<path d="M1037.35 530.834C1020.05 531.455 1009.85 531.612 992.563 530.652L993.805 553.022C1010.9 553.023 1021.17 552.451 1038.34 549.885L1037.35 530.834Z" fill="#B6CAE4"/>
<path d="M1050.35 553.022C1061.92 553.188 1068.38 552.862 1079.17 551.351L1078.22 547.108L1073.32 511.011C1063.17 510.97 1047.24 506.419 1047.24 506.419L1050.35 553.022Z" fill="#B6CAE4"/>
<path d="M715.881 471.695C706.944 472.385 702.165 473.069 694.25 475.069C693.741 481.859 693.295 488.074 692.879 493.876L692.879 493.878C690.464 527.523 689.636 547.911 682.735 585.249C694.438 581.669 700.235 579.557 711.515 577.272L715.881 471.695Z" fill="#6E96CA"/>
<path d="M898.849 530.858L898.852 558.617L913.028 563.371L913.048 493.376L891.52 486.086L886.35 492.136V523.293L898.849 530.858Z" fill="#6E96CA"/>
<path d="M993.079 530.891L981.999 526.303L983.355 551.89L994.306 553.061L993.079 530.891Z" fill="#6E96CA"/>
<path d="M1021.49 506.424L1022.88 525.476L1037.17 530.834L1038.16 549.885L1050.35 553.021L1047.24 506.419L1026.06 500.471L1024.69 502.257L1021.49 506.424Z" fill="#6E96CA"/>
<path d="M898.848 530.858L886.532 523.356C858.657 524.003 842.687 523.59 814.304 521.736C819.082 524.63 824.086 527.619 829.533 530.858C857.107 532.799 872.253 532.53 898.848 530.858Z" fill="#86A7D3"/>
<path d="M891.52 486.086L913.047 493.376C929.34 496.021 938.469 496.73 954.728 497.308L938.342 488.838H930.404C920.522 488.253 913.86 487.814 905.365 487.026C904.854 486.978 904.337 486.93 903.812 486.88C901.425 486.652 898.88 486.397 896.072 486.103L891.52 486.086Z" fill="#86A7D3"/>
<path d="M1037.37 530.91L1023.08 525.552C1006.88 526.217 998.198 526.881 981.999 526.302L993.079 530.891C1010.36 531.85 1020.09 531.531 1037.37 530.91Z" fill="#86A7D3"/>
<path d="M1026.07 500.476L1047.29 506.501C1047.29 506.501 1063.18 510.97 1073.32 511.01L1057.21 503.127L1048.68 502.333L1026.07 500.476Z" fill="#86A7D3"/>
<path fill-rule="evenodd" clip-rule="evenodd" d="M1299.2 215.954H1148.23C1145.63 216.298 1142.96 216.477 1140.25 216.477C1109.18 216.477 1084 193.046 1084 164.143C1084 135.24 1109.18 111.81 1140.25 111.81C1142.49 111.81 1144.7 111.932 1146.87 112.169C1151.9 82.5484 1177.57 60 1208.48 60C1229.43 60 1247.98 70.3607 1259.32 86.2618C1273.49 74.4834 1292.17 67.3267 1312.64 67.3267C1356.94 67.3267 1392.85 100.832 1392.85 142.163C1392.85 176.771 1367.67 205.892 1333.48 214.451V215.954H1326.09C1321.72 216.642 1317.22 217 1312.64 217C1308.06 217 1303.57 216.642 1299.2 215.954Z" fill="url(#paint4_linear)"/>
<path fill-rule="evenodd" clip-rule="evenodd" d="M1777.61 59.6001H1718.96C1717.94 59.7318 1716.91 59.7999 1715.86 59.7999C1703.78 59.7999 1694 50.8456 1694 39.7999C1694 28.7542 1703.78 19.7999 1715.86 19.7999C1716.73 19.7999 1717.58 19.8465 1718.43 19.937C1720.38 8.61717 1730.35 0 1742.36 0C1750.51 0 1757.71 3.95948 1762.12 10.0363C1767.62 5.535 1774.88 2.79995 1782.84 2.79995C1800.05 2.79995 1814 15.6046 1814 31.3999C1814 44.6257 1804.22 55.7547 1790.93 59.0256V59.6001H1788.06C1786.36 59.863 1784.62 59.9999 1782.84 59.9999C1781.06 59.9999 1779.31 59.863 1777.61 59.6001Z" fill="url(#paint5_linear)"/>
<path fill-rule="evenodd" clip-rule="evenodd" d="M844.175 114.353H749.344C747.707 114.566 746.034 114.676 744.332 114.676C724.819 114.676 709 100.2 709 82.343C709 64.4858 724.819 50.0097 744.332 50.0097C745.739 50.0097 747.127 50.085 748.491 50.2314C751.649 31.931 767.773 18 787.189 18C800.351 18 812 24.4012 819.122 34.2254C828.025 26.9484 839.759 22.5267 852.619 22.5267C880.444 22.5267 903 43.2276 903 68.7634C903 90.1451 887.185 108.137 865.705 113.425V114.353H861.063C858.317 114.779 855.496 115 852.619 115C849.741 115 846.92 114.779 844.175 114.353Z" fill="url(#paint6_linear)"/>
<defs>
<linearGradient id="paint0_linear" x1="1200.97" y1="-143.473" x2="1189.53" y2="1061.34" gradientUnits="userSpaceOnUse">
<stop stop-color="#F2C4C2" stop-opacity="0.179487"/>
<stop offset="1" stop-color="#9EB9DC"/>
</linearGradient>
<linearGradient id="paint1_linear" x1="1200.97" y1="-143.473" x2="1189.53" y2="1061.34" gradientUnits="userSpaceOnUse">
<stop stop-color="#F2C4C2" stop-opacity="0.179487"/>
<stop offset="1" stop-color="#9EB9DC"/>
</linearGradient>
<linearGradient id="paint2_linear" x1="1192.38" y1="801.219" x2="1192.46" y2="1194" gradientUnits="userSpaceOnUse">
<stop stop-color="#92CB9C"/>
<stop offset="0.755208" stop-color="#9EB9DC"/>
</linearGradient>
<linearGradient id="paint3_linear" x1="1193" y1="729.999" x2="1193.19" y2="1194.03" gradientUnits="userSpaceOnUse">
<stop stop-color="#92CB9C"/>
<stop offset="0.755208" stop-color="#9EB9DC"/>
</linearGradient>
<linearGradient id="paint4_linear" x1="1238.92" y1="42.2665" x2="1238.42" y2="217" gradientUnits="userSpaceOnUse">
<stop stop-color="white"/>
<stop offset="0.796875" stop-color="#F2C4C2"/>
</linearGradient>
<linearGradient id="paint5_linear" x1="1754.19" y1="-6.77714" x2="1754" y2="60" gradientUnits="userSpaceOnUse">
<stop stop-color="white"/>
<stop offset="0.796875" stop-color="#F2C4C2"/>
</linearGradient>
<linearGradient id="paint6_linear" x1="806.308" y1="7.04362" x2="806.007" y2="115" gradientUnits="userSpaceOnUse">
<stop stop-color="white"/>
<stop offset="0.796875" stop-color="#F2C4C2"/>
</linearGradient>
</defs>
</svg>
