<svg width="375" height="571" viewBox="0 0 375 571" fill="none" xmlns="http://www.w3.org/2000/svg">
<path fill-rule="evenodd" clip-rule="evenodd" d="M223.588 62.6735H176.172C175.354 62.781 174.517 62.8366 173.666 62.8366C163.909 62.8366 156 55.5239 156 46.5032C156 37.4826 163.909 30.1699 173.666 30.1699C174.37 30.1699 175.064 30.2079 175.746 30.2819C177.324 21.0373 185.386 14 195.095 14C201.675 14 207.5 17.2336 211.061 22.1964C215.512 18.5203 221.38 16.2867 227.809 16.2867C241.722 16.2867 253 26.7438 253 39.6434C253 50.4444 245.093 59.5331 234.353 62.2043V62.6735H232.031C230.658 62.8882 229.248 63 227.809 63C226.371 63 224.96 62.8882 223.588 62.6735Z" fill="url(#paint0_linear)"/>
<path fill-rule="evenodd" clip-rule="evenodd" d="M80.2002 30.7933H49.8937C49.3704 30.8613 48.8356 30.8965 48.2918 30.8965C42.0555 30.8965 37 26.2701 37 20.5632C37 14.8562 42.0555 10.2298 48.2918 10.2298C48.7415 10.2298 49.185 10.2539 49.621 10.3007C50.6301 4.45215 55.7831 0 61.9883 0C66.1946 0 69.9174 2.04573 72.1937 5.18542C75.0388 2.85974 78.789 1.44662 82.8988 1.44662C91.7913 1.44662 99 8.06235 99 16.2233C99 23.0566 93.9459 28.8066 87.0811 30.4965V30.7933H85.5974C84.7199 30.9292 83.8184 30.9999 82.8988 30.9999C81.9792 30.9999 81.0777 30.9292 80.2002 30.7933Z" fill="url(#paint1_linear)"/>
<path d="M319.094 104.839C335.616 113.266 354.384 122.839 375 125.633V165.865H5.89838e-06V125.633C15.274 123.709 30.078 113.229 43.3752 103.816C63.2767 89.7275 79.8029 78.0285 89.4778 100.978C99.7194 125.272 106.682 122.61 114.546 119.604C119.075 117.873 123.902 116.028 129.826 119.15C163.635 136.968 182.257 127.586 197.352 119.98C211.132 113.038 221.973 107.576 238.745 125.633C258.419 146.814 258.826 137.519 259.45 123.246C259.941 112.02 260.567 97.7138 270.807 92.7321C283.372 86.6193 299.683 94.9387 319.094 104.839Z" fill="url(#paint2_linear)"/>
<path d="M375 165.865H5.89838e-06L0 239.563H375V165.865Z" fill="url(#paint3_linear)"/>
<path fill-rule="evenodd" clip-rule="evenodd" d="M55.9062 134.839C39.3842 143.266 20.6161 152.839 0 155.633V195.865H375V155.633C359.726 153.709 344.922 143.229 331.625 133.816C311.723 119.728 295.197 108.029 285.522 130.978C275.281 155.272 268.318 152.61 260.454 149.604C255.925 147.873 251.098 146.028 245.174 149.15C211.365 166.968 192.743 157.586 177.648 149.98C163.868 143.038 153.027 137.576 136.255 155.633C116.581 176.814 116.174 167.519 115.55 153.246C115.059 142.02 114.433 127.714 104.193 122.732C91.6282 116.619 75.3174 124.939 55.9062 134.839ZM375 195.865H0V246.386H375V195.865Z" fill="#9EB9DC"/>
<path d="M375 213.602C360.382 208.893 337.805 210.312 311.314 211.978C297.411 212.852 282.429 213.794 266.955 213.953C262.853 213.995 258.891 214.135 254.983 214.273C234.505 214.998 215.531 215.669 185.847 201.906C129.323 175.698 89.4501 186.307 47.3804 197.5L47.3697 197.503C36.4686 200.403 25.4206 203.342 13.8961 205.691C11.6491 206.148 6.60431 207.04 0 207.939V571H375V256.221V213.602Z" fill="url(#paint4_linear)"/>
<path fill-rule="evenodd" clip-rule="evenodd" d="M333.311 205.442C333.085 205.563 332.828 205.647 332.542 205.704V222.816H329.276V205.568C328.574 203.65 325.64 200.259 322.708 196.87C317.091 190.379 311.483 183.897 321.593 187.799C318.427 180.719 316.202 174.21 318.869 170.77C318.951 170.665 319.032 170.559 319.113 170.454C321.266 167.669 323.322 165.008 326.317 168.116C326.852 168.672 327.434 169.073 328.032 169.363C326.895 165.456 330.085 160.378 336.45 167.789C338.275 169.914 338.961 171.187 339.161 171.888C339.639 171.398 340.906 170.783 343.898 170.443C354.031 169.295 353.493 174.768 341.174 187.473C362.415 184.846 340.533 203.383 333.425 205.438C333.387 205.44 333.349 205.441 333.311 205.442Z" fill="#315787"/>
<path fill-rule="evenodd" clip-rule="evenodd" d="M277.729 194.203C277.408 194.375 277.041 194.495 276.633 194.577V219.023H271.966V194.385C270.966 191.645 266.773 186.799 262.583 181.957C254.559 172.684 246.547 163.424 260.99 168.998C256.467 158.884 253.288 149.585 257.099 144.671C257.215 144.521 257.331 144.37 257.448 144.22C260.523 140.241 263.46 136.44 267.738 140.88C268.503 141.674 269.335 142.247 270.189 142.662C268.564 137.08 273.122 129.825 282.215 140.413C284.821 143.448 285.802 145.267 286.088 146.269C286.771 145.569 288.58 144.689 292.854 144.205C307.33 142.564 306.561 150.383 288.963 168.532C319.306 164.78 288.047 191.261 277.894 194.197C277.839 194.199 277.784 194.201 277.729 194.203Z" fill="#4273B4"/>
<path d="M45.2298 135.069L40.1902 203.261C41.3499 202.572 42.3757 201.917 43.3601 201.289C46.168 199.497 48.6396 197.92 52.923 196.382C54.7083 186.725 55.0752 181.615 55.6999 172.913L55.7 172.912C55.8077 171.411 55.9232 169.804 56.0548 168.048C58.1024 167.53 59.3388 167.353 61.6511 167.175C64.3144 167.333 65.8116 167.425 69.0957 168.048C76.035 173.137 80.5734 176.139 87.1167 180.102C94.4599 180.581 98.5421 180.688 105.754 180.521V172.462L106.938 170.727L106.319 170.231L103.906 168.048L101.646 165.789L93.7398 171.211C89.4202 170.967 86.9777 170.671 82.5986 169.947L82.7526 166.867L83.0902 161.554L79.002 161.129L78.4399 169.502L75.9242 167.432C72.4712 164.512 70.2899 162.641 67.0731 159.322C60.4133 161.715 57.0457 162.914 50.2532 164.916V160.707V137.054C48.4786 136.58 47.1949 135.948 45.2298 135.069Z" fill="#4273B4"/>
<path d="M119.154 171.589L123.273 173.737L123.756 188.045C126.276 187.573 127.909 187.605 130.697 187.752L130.347 181.132C134.537 181.282 136.886 181.258 141.077 181.086L140.718 176.158L141.544 175.08L141.07 174.618L140.307 173.951L137.38 171.025L132.554 175.571C129.834 175.526 128.344 175.405 125.726 175.08L124.256 173.489L122.543 171.412L121.362 169.993L120.284 168.612L117.1 171.589H119.154Z" fill="#4273B4"/>
<path d="M163.462 182.266L161.511 182.061L159.303 181.086C157.164 179.889 156.569 179.378 155.557 178.511C155.141 178.153 154.667 177.727 153.972 177.176L155.247 186.681C158.77 187.314 160.223 187.182 162.986 186.929C163.14 186.915 163.299 186.901 163.462 186.886V182.266Z" fill="#4273B4"/>
<path d="M147.7 175.077L149.908 175.283L153.972 177.176L153.166 176.232L152.372 175.283L150.781 173.229L150.062 172.1L147.7 175.077Z" fill="#4273B4"/>
<path d="M40.1907 203.261L45.2302 135.069C42.5017 134.848 40.2335 135.76 38.1795 136.432C38.4363 141.043 38.1005 149.338 37.2315 158.384C36.1062 174.732 34.2627 189.056 30.5166 206.959C34.1051 207.278 36.9649 205.467 40.1907 203.261Z" fill="#315787"/>
<path d="M78.4404 169.502L79.0123 161.129L76.284 162.453L75.9247 167.432L78.4404 169.502Z" fill="#315787"/>
<path d="M50.2537 164.916C57.0462 162.914 60.4138 161.715 67.0736 159.322C60.2731 160.208 56.8959 160.398 50.2537 160.707V164.916Z" fill="#315787"/>
<path d="M106.939 170.727L108.219 170.882V166.867L106.319 167.175V170.231L106.939 170.727Z" fill="#315787"/>
<path d="M117.101 171.589L120.284 168.612C119.062 168.914 118.007 169.18 117.015 169.43C114.822 169.982 112.933 170.457 110.221 171.083C110.357 171.096 110.491 171.108 110.623 171.121C112.821 171.324 114.544 171.438 117.101 171.589Z" fill="#315787"/>
<path d="M122.543 169.793L121.362 169.993L122.543 171.412V169.793Z" fill="#315787"/>
<path d="M132.555 175.571L137.381 171.025C134.156 171.882 132.348 172.351 129.115 172.975V173.951L130.347 174.105L132.555 175.571Z" fill="#315787"/>
<path d="M93.7403 171.211L101.647 165.789C98.23 166.854 96.325 167.38 92.9702 168.048L93.7403 171.211Z" fill="#315787"/>
<path d="M127.78 173.797V170.357L126.342 170.511V173.671L127.78 173.797Z" fill="#315787"/>
<path d="M141.545 175.08L141.899 174.618L147.701 175.08L150.062 172.103L149.241 172.214C147.169 172.803 145.502 173.068 143.731 173.35C142.664 173.519 141.56 173.695 140.307 173.951L141.07 174.618L141.545 175.08Z" fill="#315787"/>
<path d="M150.062 172.103L150.781 173.232V171.025L149.241 171.435V172.214L150.062 172.103Z" fill="#315787"/>
<path d="M150.781 171.025V173.232L152.373 175.285L153.166 176.235L153.973 177.176C154.667 177.727 155.141 178.153 155.558 178.511C156.569 179.378 157.165 179.889 159.304 181.086C159.077 180.131 159.155 178.855 159.232 177.607C159.276 176.886 159.32 176.175 159.304 175.542C156.962 175.517 155.459 175.354 153.102 175.08V172.77H152.27V171.025H150.781Z" fill="#315787"/>
<path d="M92.9697 168.048C88.9745 167.684 86.7376 167.412 82.7527 166.867L82.5986 169.947C86.9777 170.671 89.4203 170.967 93.7398 171.211L92.9697 168.048Z" fill="#3A659D"/>
<path d="M110.221 171.083V167.175L108.218 166.867V170.882C108.945 170.958 109.603 171.024 110.221 171.083Z" fill="#3A659D"/>
<path d="M125.726 175.08C128.345 175.405 129.834 175.526 132.554 175.571L130.347 174.105L129.114 173.951V172.975V170.511L127.78 170.357V173.797L126.342 173.671C126.342 173.671 125.076 173.574 124.256 173.489L125.726 175.08Z" fill="#3A659D"/>
<path d="M124.256 169.993L122.543 169.793V171.412L124.256 173.489V171.23V169.993Z" fill="#3A659D"/>
<path d="M61.467 167.01L60.3369 194.325C79.3928 193.218 90.0042 192.121 108.83 189.499L108.835 182.311C101.95 182.743 98.0395 182.813 90.9019 182.311C89.4919 181.473 88.1834 180.689 86.9464 179.94C80.3996 175.977 75.8587 172.974 68.9156 167.883C65.6298 167.261 64.1318 167.169 61.467 167.01Z" fill="#B6CAE4"/>
<path d="M112.508 172.613L112.509 190.724C117.021 190.698 119.499 190.387 123.861 189.492L123.81 188.055L123.292 173.631C119.083 173.481 116.726 173.298 112.508 172.613Z" fill="#B6CAE4"/>
<path d="M144.666 182.304C140.192 182.465 137.554 182.505 133.08 182.257L133.401 188.045C137.825 188.045 140.48 187.897 144.923 187.233L144.666 182.304Z" fill="#B6CAE4"/>
<path d="M148.03 188.045C151.023 188.088 152.695 188.003 155.486 187.612L155.242 186.515L153.973 177.176C151.348 177.165 147.226 175.988 147.226 175.988L148.03 188.045Z" fill="#B6CAE4"/>
<path d="M61.4982 167.004C59.1859 167.183 57.9495 167.36 55.902 167.877C55.7703 169.634 55.6548 171.242 55.5471 172.743L55.5471 172.743C54.9223 181.448 54.7082 186.723 52.9229 196.382C55.9504 195.456 57.4502 194.91 60.3687 194.318L61.4982 167.004Z" fill="#6E96CA"/>
<path d="M108.835 182.311L108.835 189.492L112.503 190.722L112.508 172.613L106.939 170.727L105.601 172.292V180.353L108.835 182.311Z" fill="#6E96CA"/>
<path d="M133.213 182.319L130.347 181.132L130.698 187.752L133.531 188.055L133.213 182.319Z" fill="#6E96CA"/>
<path d="M140.565 175.989L140.924 180.918L144.621 182.304L144.877 187.233L148.03 188.045L147.226 175.988L141.746 174.449L141.391 174.911L140.565 175.989Z" fill="#6E96CA"/>
<path d="M108.835 182.311L105.648 180.37C98.4366 180.537 94.3051 180.43 86.9619 179.95C88.1982 180.699 89.4928 181.473 90.902 182.311C98.0358 182.813 101.954 182.743 108.835 182.311Z" fill="#86A7D3"/>
<path d="M106.939 170.727L112.508 172.613C116.723 173.298 119.085 173.481 123.292 173.631L119.052 171.439H116.999C114.442 171.288 112.718 171.174 110.521 170.97C110.389 170.958 110.255 170.946 110.119 170.933C109.502 170.874 108.843 170.808 108.117 170.732L106.939 170.727Z" fill="#86A7D3"/>
<path d="M144.672 182.324L140.975 180.938C136.785 181.11 134.538 181.282 130.347 181.132L133.214 182.319C137.685 182.567 140.201 182.485 144.672 182.324Z" fill="#86A7D3"/>
<path d="M141.748 174.45L147.239 176.009C147.239 176.009 151.349 177.165 153.973 177.176L149.806 175.136L147.598 174.931L141.748 174.45Z" fill="#86A7D3"/>
<defs>
<linearGradient id="paint0_linear" x1="204.654" y1="8.46533" x2="204.5" y2="63" gradientUnits="userSpaceOnUse">
<stop stop-color="white"/>
<stop offset="0.796875" stop-color="#F2C4C2"/>
</linearGradient>
<linearGradient id="paint1_linear" x1="68.0984" y1="-3.50152" x2="68.0023" y2="31" gradientUnits="userSpaceOnUse">
<stop stop-color="white"/>
<stop offset="0.796875" stop-color="#F2C4C2"/>
</linearGradient>
<linearGradient id="paint2_linear" x1="188.802" y1="-2.22799" x2="183.87" y2="311.485" gradientUnits="userSpaceOnUse">
<stop stop-color="#F2C4C2" stop-opacity="0.179487"/>
<stop offset="1" stop-color="#9EB9DC"/>
</linearGradient>
<linearGradient id="paint3_linear" x1="188.802" y1="-2.22799" x2="183.87" y2="311.485" gradientUnits="userSpaceOnUse">
<stop stop-color="#F2C4C2" stop-opacity="0.179487"/>
<stop offset="1" stop-color="#9EB9DC"/>
</linearGradient>
<linearGradient id="paint4_linear" x1="187.451" y1="309.542" x2="187.681" y2="571" gradientUnits="userSpaceOnUse">
<stop stop-color="#92CB9C"/>
<stop offset="0.755208" stop-color="#9EB9DC"/>
</linearGradient>
</defs>
</svg>
