<svg width="634" height="307" viewBox="0 0 634 307" fill="none" xmlns="http://www.w3.org/2000/svg">
<path d="M62.8598 4.2906L41.6601 291.025C46.5385 288.13 50.8536 285.377 54.9948 282.736C66.8066 275.201 77.204 268.568 95.2227 262.103C102.733 221.494 104.276 200.009 106.904 163.417L106.905 163.415C107.358 157.105 107.843 150.345 108.397 142.96C117.011 140.785 122.212 140.041 131.939 139.291C143.143 139.957 149.441 140.344 163.256 142.96C192.447 164.36 211.539 176.984 239.064 193.647C269.955 195.663 287.127 196.113 317.464 195.409V161.522L322.446 154.228L319.84 152.142L309.689 142.96L300.186 133.463L266.925 156.261C248.755 155.234 238.479 153.993 220.058 150.946L220.706 137.995L222.126 115.654L204.928 113.868L202.564 149.075L191.981 140.37C177.456 128.091 168.28 120.226 154.747 106.27C126.732 116.332 112.566 121.374 83.9919 129.794V112.095V12.6366C76.5266 10.6436 71.1264 7.98612 62.8598 4.2906Z" fill="#4273B4"/>
<path d="M373.835 157.853L391.163 166.884L393.192 227.044C403.794 225.061 410.664 225.195 422.393 225.813L420.918 197.978C438.547 198.608 448.428 198.507 466.057 197.783L464.546 177.062L468.023 172.53L466.027 170.587L462.818 167.781L450.507 155.478L430.205 174.594C418.762 174.404 412.496 173.895 401.48 172.53L395.295 165.839L388.089 157.109L383.122 151.139L378.586 145.334L365.196 157.853H373.835Z" fill="#4273B4"/>
<path d="M560.224 202.747L552.017 201.884L542.73 197.783C533.731 192.753 531.226 190.604 526.971 186.956C525.218 185.453 523.225 183.66 520.304 181.342L525.667 221.309C540.484 223.974 546.597 223.416 558.22 222.355C558.87 222.296 559.537 222.235 560.224 222.173V202.747Z" fill="#4273B4"/>
<path d="M493.919 172.519L503.206 173.382L520.304 181.342L516.911 177.375L513.573 173.382L506.877 164.748L503.854 160L493.919 172.519Z" fill="#4273B4"/>
<path d="M41.66 291.026L62.8597 4.29058C51.3818 3.35949 41.8402 7.1972 33.1998 10.0207C34.2798 29.4118 32.8674 64.2906 29.2119 102.325C24.4779 171.069 16.7231 231.295 0.964355 306.575C16.06 307.917 28.0903 300.305 41.66 291.026Z" fill="#315787"/>
<path d="M202.564 149.076L204.97 113.869L193.493 119.434L191.981 140.37L202.564 149.076Z" fill="#315787"/>
<path d="M83.9917 129.794C112.565 121.374 126.732 116.332 154.747 106.27C126.14 109.995 111.933 110.796 83.9917 112.095V129.794Z" fill="#315787"/>
<path d="M322.446 154.228L327.831 154.878V137.996L319.84 139.291V152.142L322.446 154.228Z" fill="#315787"/>
<path d="M365.195 157.853L378.586 145.334C373.446 146.605 369.009 147.722 364.833 148.772C355.609 151.094 347.664 153.093 336.254 155.723C336.826 155.777 337.389 155.83 337.945 155.882C347.19 156.739 354.441 157.216 365.195 157.853Z" fill="#315787"/>
<path d="M388.089 150.299L383.122 151.139L388.089 157.109V150.299Z" fill="#315787"/>
<path d="M430.205 174.595L450.507 155.479C436.942 159.083 429.336 161.056 415.734 163.681V167.781L420.918 168.429L430.205 174.595Z" fill="#315787"/>
<path d="M266.925 156.262L300.186 133.463C285.812 137.941 277.798 140.152 263.686 142.96L266.925 156.262Z" fill="#315787"/>
<path d="M410.119 167.134V152.673L404.072 153.32V166.606L410.119 167.134Z" fill="#315787"/>
<path d="M468.023 172.53L469.513 170.587L493.919 172.53L503.854 160.011L500.398 160.477C491.684 162.955 484.67 164.07 477.217 165.255C472.732 165.967 468.088 166.706 462.818 167.781L466.027 170.587L468.023 172.53Z" fill="#315787"/>
<path d="M503.854 160.011L506.877 164.76V155.479L500.398 157.205V160.477L503.854 160.011Z" fill="#315787"/>
<path d="M506.877 155.479V164.76L513.573 173.393L516.91 177.386L520.303 181.343C523.225 183.66 525.218 185.454 526.97 186.956C531.226 190.605 533.731 192.753 542.73 197.783C541.774 193.771 542.105 188.401 542.427 183.157C542.614 180.125 542.798 177.135 542.73 174.473C532.877 174.368 526.554 173.681 516.64 172.53V162.817H513.141V155.479H506.877Z" fill="#315787"/>
<path d="M263.686 142.96C246.879 141.433 237.469 140.289 220.706 137.996L220.058 150.946C238.479 153.993 248.755 155.234 266.926 156.262L263.686 142.96Z" fill="#3A659D"/>
<path d="M336.255 155.723V139.291L327.831 137.996V154.878C330.887 155.197 333.658 155.475 336.255 155.723Z" fill="#3A659D"/>
<path d="M401.48 172.53C412.496 173.895 418.762 174.404 430.205 174.594L420.918 168.429L415.735 167.781V163.681V153.32L410.119 152.673V167.134L404.072 166.606C404.072 166.606 398.748 166.196 395.295 165.839L401.48 172.53Z" fill="#3A659D"/>
<path d="M395.295 151.139L388.089 150.299V157.109L395.295 165.839V156.342V151.139Z" fill="#3A659D"/>
<path d="M131.162 138.599L126.408 253.452C206.57 248.8 251.209 244.185 330.402 233.158L330.422 202.934C301.462 204.753 285.01 205.046 254.985 202.934C249.054 199.41 243.549 196.117 238.345 192.968C210.805 176.301 191.703 163.674 162.496 142.27C148.673 139.653 142.372 139.266 131.162 138.599Z" fill="#B6CAE4"/>
<path d="M345.875 162.159L345.877 238.313C364.86 238.202 375.284 236.896 393.634 233.132L393.418 227.087L391.238 166.436C373.533 165.808 363.617 165.036 345.875 162.159Z" fill="#B6CAE4"/>
<path d="M481.152 202.907C462.333 203.583 451.233 203.753 432.413 202.71L433.766 227.044C452.375 227.046 463.543 226.423 482.233 223.633L481.152 202.907Z" fill="#B6CAE4"/>
<path d="M495.304 227.044C507.894 227.225 514.927 226.871 526.667 225.227L525.64 220.612L520.304 181.342C509.262 181.298 491.923 176.347 491.923 176.347L495.304 227.044Z" fill="#B6CAE4"/>
<path d="M131.294 138.573C121.567 139.324 116.366 140.068 107.752 142.243C107.198 149.629 106.713 156.391 106.26 162.703L106.259 162.705C103.631 199.305 102.731 221.485 95.2202 262.104C107.956 258.209 114.265 255.911 126.542 253.425L131.294 138.573Z" fill="#6E96CA"/>
<path d="M330.422 202.934L330.426 233.132L345.855 238.303L345.876 162.159L322.447 154.228L316.819 160.809V194.704L330.422 202.934Z" fill="#6E96CA"/>
<path d="M432.976 202.97L420.918 197.978L422.393 225.813L434.312 227.087L432.976 202.97Z" fill="#6E96CA"/>
<path d="M463.901 176.353L465.412 197.078L480.963 202.907L482.043 223.633L495.304 227.044L491.923 176.347L468.868 169.877L467.378 171.82L463.901 176.353Z" fill="#6E96CA"/>
<path d="M330.422 202.934L317.018 194.773C286.681 195.477 269.3 195.027 238.41 193.01C243.611 196.159 249.057 199.41 254.985 202.934C284.994 205.046 301.478 204.753 330.422 202.934Z" fill="#86A7D3"/>
<path d="M322.446 154.228L345.875 162.159C363.607 165.036 373.543 165.808 391.237 166.436L373.404 157.223H364.765C354.01 156.586 346.759 156.108 337.514 155.251C336.958 155.199 336.395 155.146 335.824 155.092C333.227 154.845 330.457 154.566 327.401 154.247L322.446 154.228Z" fill="#86A7D3"/>
<path d="M481.177 202.991L465.627 197.162C447.998 197.886 438.547 198.608 420.918 197.978L432.976 202.97C451.785 204.013 462.369 203.666 481.177 202.991Z" fill="#86A7D3"/>
<path d="M468.877 169.882L491.976 176.437C491.976 176.437 509.267 181.298 520.304 181.342L502.775 172.767L493.488 171.903L468.877 169.882Z" fill="#86A7D3"/>
<path d="M92.9766 29.3346C98.3629 27.2316 103.104 25.7805 107.705 24.4275C166.941 7.06338 165.041 55.9731 119.221 60.4176C113.049 61.0204 96.8691 55.6507 105.51 49.9935C111.717 45.9346 118.485 44.4905 123.85 47.6731C137.239 55.6156 153.798 89.3134 153.798 89.3134C160.11 100.326 167.488 112.208 183.781 113.323C189.791 113.73 197.184 108.977 199.519 105.738L204.428 101.77C204.506 101.701 204.606 101.661 204.71 101.657C204.813 101.653 204.916 101.685 204.998 101.748C205.081 101.811 205.14 101.901 205.164 102.002C205.188 102.103 205.176 102.21 205.13 102.303C192.849 130.68 165.567 118.896 155.102 98.3494C146.146 80.768 137.288 59.7937 118.702 50.6034C115.644 49.0892 105.033 52.7064 109.655 54.8866C112.923 56.4078 116.395 56.2886 119.88 55.4193C132.505 52.1877 145.536 45.3388 144.673 36.1344C143.895 27.9256 135.738 21.8057 96.1887 30.309C95.6068 30.3935 95.0128 30.3007 94.4845 30.0426L92.9766 29.3346Z" fill="#101D2D"/>
<path d="M124.159 8.19901C124.25 7.89056 126.81 7.89758 126.81 7.89758C127.312 7.86655 127.812 7.97365 128.258 8.20725C128.703 8.44085 129.075 8.79199 129.335 9.22248C129.712 9.80058 130.043 10.4077 130.324 11.0381C130.359 14.1085 125.996 26.6357 125.267 29.7342C124.566 32.7135 125.702 29.8113 123.864 38.7983C122.027 47.7852 122.581 44.7849 122.02 47.7923L120.301 56.8073L118.513 65.8083C117.292 71.6688 116.486 77.7255 115.223 83.558C115.167 83.8244 112.951 88.7946 112.951 88.7946C112.671 89.1451 111.808 87.3925 111.857 86.9649C112.558 80.817 114.662 71.1991 115.223 65.584L115.869 56.4708L117.412 47.4558C117.776 44.4134 119.242 32.1947 119.768 29.1803" fill="#101D2D"/>
<path d="M155.958 55.4754C165.678 54.9076 163.287 67.0491 166.057 71.4795C166.941 72.8816 169.34 72.7484 170.623 71.6899C174.305 68.6755 175.119 60.74 175.336 55.223H176.171C176.872 60.733 178.675 71.3464 179.93 77.34C178.934 78.1111 178.415 78.3565 177.398 77.7326C174.53 71.8791 172.152 60.1722 174.859 55.0197C177.412 50.1126 178.478 65.2615 177.594 67.3436C176.767 74.2205 168.238 82.7659 162.614 74.8374C159.394 69.2293 163.701 64.161 157.76 60.1161C157.529 60.011 155.698 55.4544 155.958 55.4754Z" fill="#101D2D"/>
<path d="M208.7 47.8132C209.633 47.9744 213.96 50.9678 215.012 53.4213C212.908 54.1223 208.994 58.7561 194.673 39.7516C192.218 34.494 192.379 28.2479 193.27 23.2778C193.431 15.2371 200.157 -1.62922 203.089 15.9172C205.067 26.7618 206.28 40.4737 206.722 53.0919C206.685 57.4123 206.126 61.7125 205.06 65.8994C202.991 74.1995 198.263 77.8167 193.957 77.8167C188.613 77.0175 184.776 72.6432 186.691 64.4974C187.603 61.7284 189.111 60.2913 191.755 58.7561C193.158 57.957 199.582 56.2254 200.634 57.2769C200.284 58.3284 198.65 60.1814 197.829 60.782C190.661 61.8335 188.283 67.7501 190.661 71.7599C195.17 79.3589 200.108 67.1752 201.686 62.885C205.06 52.0825 203.699 46.1308 203.089 36.9475C202.598 29.65 198.53 16.9686 199.231 15.2161C199.638 15.6647 193.569 34.8522 198.53 40.8032C202.037 45.0093 203.839 47 208.7 47.8132Z" fill="#101D2D"/>
<path d="M224.585 71.0938C226.647 69.159 227.124 64.1889 225.988 61.546C225.16 59.6042 223.077 57.6274 221.324 57.277C220.272 55.8749 217.838 53.5194 218.448 53.0708C219.248 52.7343 226.625 53.0708 228.022 55.2579C228.813 56.4966 229.467 57.8176 229.972 59.1976C231.781 66.1026 229.509 72.1033 226.114 75.2719C222.011 79.0994 217.579 78.0759 214.142 70.9536C213.775 69.0486 213.615 67.1096 213.665 65.1703C213.731 63.8487 214.109 62.5613 214.766 61.4128C215.257 60.817 217.719 57.9078 218.448 58.3634C215.447 65.009 219.059 75.7836 224.585 71.0938Z" fill="#101D2D"/>
<path d="M561.163 72.7372C562.632 71.2111 564.504 67.0374 563.691 64.5918C563.158 62.9484 560.638 61.0271 558.852 60.5288C558.789 60.5108 558.73 60.4794 558.68 60.4367C558.631 60.3941 558.591 60.3412 558.563 60.2818C558.536 60.2223 558.521 60.1576 558.521 60.092C558.521 60.0265 558.535 59.9617 558.562 59.9021C559.226 58.5841 560.151 57.4151 561.282 56.4666C561.339 56.4294 561.406 56.4091 561.474 56.4078C562.469 56.3808 565.883 58.3886 566.457 59.3655C567.077 60.5303 567.562 61.7619 567.903 63.0365C567.901 63.0622 567.897 63.0877 567.892 63.1129C568.842 69.3765 565.885 74.2937 562.151 76.6004C557.645 79.382 553.386 77.9098 550.844 71.2805C550.83 71.2374 550.819 71.1934 550.812 71.1488C550.674 69.4606 550.749 67.7618 551.035 66.0922C551.267 64.9309 551.798 63.8499 552.575 62.9556C553.472 62.2027 554.442 61.541 555.47 60.9804C555.873 60.7805 556.234 61.1907 556.091 61.6169C553.819 67.5261 555.42 75.9231 561.163 72.7372Z" fill="#101D2D"/>
<path d="M234.173 60.8733C247.247 49.2155 246.573 36.2467 246.573 25.7315C246.201 21.0067 245.325 15.2934 244.069 11.8234C242.715 18.0204 241.221 29.538 240.611 38.7914C240.289 48.4514 238.143 68.3181 244.763 76.0293C244.981 76.2887 246.222 80.06 244.763 80.06C243.361 79.4641 237.911 75.8189 237.806 75.5034C231.893 58.2094 237.939 2.04417 244.069 0.845432C247.078 0.24957 252.107 28.9912 250.002 38.7914C247.786 49.1384 244.763 57.2771 236.53 63.8176H236.48C235.354 64.4497 234.182 64.9957 232.974 65.451C232.917 65.465 232.857 65.4644 232.8 65.4493C232.743 65.4342 232.691 65.405 232.649 65.3646C232.606 65.3241 232.574 65.2735 232.556 65.2176C232.538 65.1616 232.535 65.1021 232.546 65.0444C232.812 63.8877 233.991 60.6771 234.173 60.8733Z" fill="#101D2D"/>
<path d="M572.414 61.8337C585.445 51.2204 586.764 36.3167 585.943 25.8226C585.572 21.1047 583.972 17.6348 582.717 14.1648C579.21 19.3523 579.623 29.4469 579.013 38.7003C578.691 48.3602 578.003 68.4934 584.624 76.2045C584.849 76.4639 585.319 80.1863 584.975 80.0601C583.572 79.4642 577.289 76.9055 577.289 75.6857C571.376 58.3917 576.587 5.69646 582.717 4.49773C585.726 3.90186 591.294 29.9514 589.183 39.7516C586.974 50.0916 583.797 58.1884 574.974 64.2872H574.925C574.122 64.7099 571.114 66.1228 570.246 66.3903C568.782 66.7562 572.245 62.1421 572.414 61.8337Z" fill="#101D2D"/>
<path d="M273.224 24.3293C271.429 21.2168 270.713 19.8639 269.367 18.7213C262.872 13.1132 264.731 24.5747 264.457 32.7415C264.322 36.1064 264.85 39.9106 264.808 43.2147C264.808 43.425 265.404 43.6704 267.101 43.411C271.471 41.8547 272.333 40.628 276.03 40.4527C277.783 41.5042 278.19 41.7005 278.807 43.2147C278.134 43.9578 274.802 44.0489 272.712 45.0654C270.737 45.8995 268.651 46.4426 266.519 46.6777C262.704 47.0986 265.005 71.1638 265.159 76.2044C264.926 77.6067 260.654 80.3515 259.99 78.4336C260.887 68.311 259.983 57.971 259.548 47.1123C258.145 46.4113 247.428 46.895 247.407 46.4814C246.923 47.1123 245.71 43.3689 247.274 43.6073C251.076 44.1541 259.471 43.9928 259.548 43.411C260.691 34.8025 259.506 26.5586 259.884 18.2516C260.049 16.5453 260.696 14.9211 261.75 13.5688C266.912 7.8555 271.822 14.8655 274.276 18.7214C275.169 20.1231 276.032 21.908 276.03 22.2262C276.03 23.809 275.225 27.8497 273.224 24.3293Z" fill="#101D2D"/>
<path d="M348.556 17.9362C335.315 14.4311 321.905 19.4364 323.728 30.898C325.938 44.757 340.673 44.4345 350.148 51.9845L350.226 52.0546C363.832 67.0773 345.316 80.004 333.225 79.6184C326.66 79.4081 316.245 77.5154 312.598 72.8396C310.978 70.7366 310.894 67.7152 310.494 65.8295C309.638 61.8407 311.897 62.0861 315.761 66.2641C324.121 75.3212 333.554 81.364 341.711 72.8747C359.518 54.3679 330.041 48.7318 321.253 37.6978C309.33 22.7311 326.877 5.75258 343.359 12.4122C344.622 13.1202 348.97 15.5668 348.556 17.9362Z" fill="#101D2D"/>
<path d="M396.213 59.1376C387.723 54.9992 383.926 64.8292 386.475 70.9702C387.364 73.1214 392.784 73.8248 397.172 72.2894C398.563 71.8052 397.863 75.7289 397.279 76.4942L392.95 77.8527C392.693 78.1959 391.264 78.0289 390.847 77.9063C384.002 75.7947 381.815 72.3091 382.621 60.9705C382.796 58.4907 384.66 56.7462 386.929 55.7768C387.241 55.6426 390.559 54.2397 392.052 54.1876C398.747 53.982 401.336 56.756 404.994 59.8885C405.635 59.9704 406.883 60.4715 406.921 61.1508C407.007 62.6001 406.503 64.0295 406.356 64.0472C403.973 64.3955 389.265 65.1069 384.923 64.8809C383.659 64.815 385.459 62.7635 385.569 62.6976C386.207 62.3939 399.862 62.2142 399.401 61.7421C398.49 60.7035 397.412 59.8234 396.213 59.1376Z" fill="#101D2D"/>
<path d="M468.601 59.7431C460.431 55.0069 455.938 64.5394 458.04 70.8474C458.773 73.0568 460.449 74.7625 464.936 73.5456C466.358 73.1622 465.953 76.2804 465.323 77.0021L464.005 78.1832C463.723 78.5 462.31 78.2311 461.903 78.0859C455.227 75.4891 453.296 71.8559 454.912 60.6042C455.265 58.1433 457.249 56.5369 459.582 55.7326C459.904 55.6211 463.313 54.4597 464.806 54.5217C471.499 54.7894 470.252 59.7353 477.306 61.1285C477.939 61.2561 479.148 61.8453 479.137 62.5256C479.119 63.9844 478.514 65.3669 478.359 65.3808C475.957 65.5503 461.243 65.2061 456.929 64.6695C455.672 64.5131 457.614 62.596 457.729 62.5451C458.387 62.2809 472.02 63.0873 471.594 62.5764C470.761 61.4727 469.749 60.5152 468.601 59.7431Z" fill="#101D2D"/>
<path d="M417.134 56.6182C417.604 56.6182 418.811 57.3192 418.705 57.7888C416.496 67.7432 417.415 72.2367 423.98 72.9658C425.207 73.099 424.576 75.4264 423.762 76.4709C423.26 77.2914 422.57 77.981 421.749 78.4828C420.746 79.1838 419.743 77.3051 418.783 76.555C418.783 76.555 416.454 73.6878 415.276 72.5732C413.354 70.7296 413.614 63.9788 413.74 57.2911C413.74 56.9546 413.74 55.6928 414.098 55.6858L417.134 56.6182Z" fill="#101D2D"/>
<path d="M416.805 49.6851C415.972 49.6731 415.162 49.4145 414.476 48.942V48.942C413.828 48.504 413.369 47.8377 413.191 47.0761C413.013 46.3146 413.129 45.5139 413.516 44.8341C413.999 43.9578 414.995 42.1422 416.84 42.2333C417.604 42.2753 418.656 42.6609 419.365 44.2732C420.55 46.9862 419.547 48.3882 418.839 48.9771C418.265 49.4447 417.545 49.6953 416.805 49.6851Z" fill="#101D2D"/>
<path d="M615.527 70.7226C614.973 67.7222 615.527 63.3829 616.228 59.8849C617.834 57.7818 619.735 54.9778 622.905 54.9778C625.058 54.9778 628.263 57.7818 628.284 57.7818C631.09 62.2122 633.573 71.9423 633.972 78.1113C633.954 78.314 633.859 78.5021 633.706 78.637C632.633 79.5694 632.303 77.1929 630.297 76.4428C630.045 76.3447 628.116 61.9669 622.302 62.1772C618.15 62.3244 618.795 69.0191 617.694 71.031C617.582 71.242 617.407 71.4133 617.194 71.5216C616.98 71.6298 616.739 71.6698 616.502 71.6361C616.265 71.6024 616.045 71.4967 615.87 71.3332C615.696 71.1697 615.576 70.9565 615.527 70.7226V70.7226Z" fill="#101D2D"/>
<path d="M429.661 70.9469C429.106 67.9536 429.661 63.6143 430.362 60.1092C431.968 58.0062 433.869 55.2021 437.039 55.2021C439.192 55.2021 442.397 58.0062 442.418 58.0062C445.224 62.4366 447.706 72.1737 448.106 78.3356C448.088 78.5384 447.992 78.7265 447.84 78.8614C446.767 79.7937 446.437 77.4173 444.431 76.6672C444.186 76.5761 442.25 62.1913 436.436 62.4016C432.284 62.5558 432.929 69.2435 431.828 71.2554C431.713 71.463 431.537 71.6308 431.325 71.7365C431.112 71.8423 430.873 71.881 430.638 71.8475C430.403 71.8141 430.183 71.7101 430.009 71.5492C429.834 71.3884 429.713 71.1784 429.661 70.9469Z" fill="#101D2D"/>
<path d="M491.849 75.2791C491.982 71.2413 491.26 64.4064 493.357 61.8056C494.465 60.4036 494.83 59.7937 496.794 59.962C497.677 60.0391 498.266 60.7821 498.54 62.4576C498.708 63.5301 501.079 62.8011 502.552 62.6749C502.965 62.6749 503.008 62.2403 503.008 61.8267C503.038 60.4794 502.996 59.1315 502.881 57.7888C500.384 57.2 498.231 56.0713 495.938 54.9848C493.967 54.9848 492.803 54.9497 491.618 55.9942C490.026 57.3962 489.675 58.7983 489.836 61.392C489.836 61.7145 488.672 59.8428 486.848 57.9781C484.793 57.6907 484.008 57.3332 482.795 57.1088C482.69 57.0828 482.58 57.0815 482.474 57.1048C482.369 57.1282 482.27 57.1757 482.186 57.2436C482.101 57.3115 482.034 57.3979 481.989 57.4962C481.944 57.5944 481.922 57.7017 481.925 57.8098C481.883 58.644 481.995 58.637 482.36 59.4853C484.548 60.712 486.848 61.5462 487.466 65.6121C487.409 70.8347 487.402 76.0152 487.395 77.7467C487.395 77.804 487.41 77.8603 487.44 77.9094C487.469 77.9584 487.512 77.9983 487.563 78.0245C487.614 78.0507 487.671 78.0622 487.728 78.0577C487.785 78.0532 487.84 78.0329 487.886 77.9991C488.798 77.3121 490.874 75.8049 491.849 75.2791Z" fill="#101D2D"/>
<path d="M509.068 77.2139C509.068 77.2139 508.836 73.7508 510.085 72.9517C511.179 72.2507 512.554 73.7719 514.44 72.2507C516.131 70.8486 516.692 69.2293 513.325 67.3856C513.024 67.2174 511.481 66.8458 511.172 66.7267C508.367 65.6331 505.561 63.6422 507.3 61.8546C510.73 58.3496 517.014 53.4985 518.136 52.405C518.861 51.7158 519.804 51.3017 520.802 51.2343L523.607 51.5427C523.744 51.5535 523.876 51.5973 523.992 51.6703C524.108 51.7433 524.205 51.8434 524.274 51.9619C524.343 52.0805 524.382 52.214 524.388 52.3509C524.394 52.4879 524.367 52.6243 524.308 52.7484C522.906 55.7768 515.366 57.8378 512.238 60.3264C511.221 61.1396 509.966 62.3243 511.046 63.9717C513.218 65.4668 515.637 66.5656 518.193 67.2174C518.544 67.297 518.865 67.4784 519.115 67.7389C519.364 67.9995 519.531 68.3276 519.595 68.6825C519.89 70.6734 518.796 73.8069 513.774 77.0947C512.995 77.5503 509.973 77.7116 509.068 77.2139Z" fill="#101D2D"/>
<path d="M536.491 20.8243C531.764 30.5964 530.683 45.1074 530.374 53.0709C530.461 53.9433 530.621 57.9798 531.658 56.2045C532.049 55.5371 532.604 54.9809 533.27 54.5894C533.937 54.1978 534.694 53.9839 535.467 53.9683C536.989 54.0491 538.504 54.2223 540.005 54.487C544.437 56.3097 547.257 65.0793 540.005 67.2875C539.7 67.3851 539.431 67.5706 539.232 67.8207C539.032 68.0709 538.911 68.3744 538.884 68.693C538.857 69.0117 538.925 69.3312 539.08 69.6113C539.234 69.8914 539.468 70.1195 539.752 70.2669C542.67 71.7951 545.7 73.4915 547.972 76.1554C553.421 82.5486 556.704 92.4329 564.103 96.5689C574.301 102.282 580.809 102.023 594.373 102.261H594.451L601.029 102.962H601.141C601.745 103.109 605.35 104.231 604.957 104.245C589.702 105.065 563.633 104.694 556.269 95.7907C546.057 83.4389 544.388 74.2626 533.685 69.7691C533.131 69.5378 531.329 66.7968 531.925 66.7828C537.662 66.6847 543.02 63.1515 538.286 58.4197C536.266 56.4078 532.935 60.4597 530.768 62.0019C530.396 62.2613 529.744 68.5844 530.179 73.3934C530.198 73.5697 530.265 73.7373 530.374 73.8772C530.483 74.0172 530.629 74.1239 530.796 74.1855C533.805 75.3001 533.194 76.2886 532.9 78.4757C532.88 78.6136 532.835 78.7467 532.767 78.8683C532.065 80.053 531.827 80.025 530.831 79.9128C530.602 79.8868 530.391 79.7799 530.235 79.6114C529.674 78.9945 528.313 77.3891 527.072 75.6717C526.972 75.5355 526.91 75.3762 526.889 75.209C526.37 70.1337 526.75 61.6303 526.89 61.1326C526.244 45.6192 528.383 29.5099 533.314 15.9663C533.791 14.6414 535.06 13.709 536.491 13.0431C537.297 12.6645 538.455 12.0126 539.156 12.5524L541.113 14.6554C541.393 15.5036 540.51 16.6112 536.491 20.8243Z" fill="#101D2D"/>
<path d="M598.554 57.4312C599.339 57.2279 598.35 61.7144 597.684 62.1771C583.91 71.6758 600.265 77.8518 603.063 64.9812C603.225 63.488 602.93 63.2707 602.25 61.0555C601.941 59.8708 600.777 58.3215 600.777 56.7723C602.18 56.2605 604.024 56.9265 606.697 59.2469C608.464 61.1466 610.589 70.9678 611.683 72.7063C611.725 73.6036 611.494 76.597 610.512 75.9871C608.043 73.5335 606.17 68.5143 605.259 67.1192C604.161 69.8812 602.587 72.4294 600.609 74.6481C597.067 77.6134 592.571 76.7091 590.495 74.1855C585.831 68.4722 590.839 59.3941 598.554 57.4312Z" fill="#101D2D"/>
<path d="M362.766 28.5356C362.17 32.4894 362.079 38.3498 362.766 46.6288C362.71 47.2247 360.269 45.9979 359.617 47.5962C359.196 48.6478 361.02 49.8395 362.079 50.5756C363.106 54.8236 360.728 69.8243 361.595 74.1015C362.682 76.6322 362.759 77.4734 365.102 78.3076C368.075 78.56 372.101 79.3101 373.455 77.9782C376.26 74.3049 373.876 74.5992 369.45 74.452C368.43 74.1885 367.386 74.3099 366.855 73.4005C366.203 68.7177 364.975 65.4791 366.154 55.8752C366.504 52.0196 366.154 50.5756 369.632 50.5825C371.815 50.5576 373.99 50.3228 376.127 49.8815C381.107 48.5636 382.53 44.7291 381.598 44.4207C380.335 45.0586 377.235 43.7126 375.622 45.3599C373.518 47.5681 369.31 47.463 369.31 47.463C368.23 47.4279 367.753 47.7083 367.556 45.3599C367.206 41.0627 367.206 27.8346 371.063 22.577C369.695 20.6943 368.599 20.7607 366.532 22.1494C362.766 24.6801 362.794 28.3324 362.766 28.5356Z" fill="#101D2D"/>
<path d="M435.741 103.607C434.191 109.152 435.741 121.539 434.191 123.46C434.191 124.624 434.57 124.666 434.191 126.327C432.01 133.015 434.857 131.683 436.078 130.912C437.551 129.972 436.225 125.044 437.249 123.859C437.502 123.565 439.963 121.055 441.64 120.88C443.561 120.698 445.686 125.99 443.042 127.687C441.745 128.521 440.061 126.986 438.834 127.357C437.894 127.631 437.158 129.811 437.221 129.944C437.698 130.954 443.133 129.944 444.894 128.682C447.868 126.579 448.295 119.478 442.523 118.483C439.886 118.027 437.34 120.894 437.347 120.628C437.48 115.195 436.793 110.814 438.75 104.14C439.129 102.843 440.461 101.876 440.454 100.691C440.405 97.985 438.504 94.9706 435.741 103.607Z" fill="#101D2D"/>
<path d="M401.305 126.874C402.455 125.913 402.707 123.46 402.097 122.156C401.641 121.196 399.811 120.242 398.829 120.249C399.079 119.325 399.562 118.48 400.232 117.796C400.681 117.627 402.869 118.532 403.276 119.051C403.712 119.656 404.076 120.31 404.363 120.999C404.826 122.387 404.869 123.88 404.486 125.292C404.102 126.704 403.311 127.971 402.209 128.935C399.909 130.821 397.426 130.337 395.505 126.832C395.301 125.893 395.211 124.932 395.238 123.972C395.28 123.31 395.492 122.67 395.855 122.114C396.129 121.82 397.503 120.389 397.917 120.607C396.185 123.866 398.212 129.187 401.305 126.874Z" fill="#101D2D"/>
<path d="M454.53 127.865C455.95 127.057 456.708 124.487 456.288 122.973C455.974 121.856 454.207 120.465 453.157 120.278C453.591 119.343 454.243 119.225 455.075 118.616C455.584 118.522 457.766 119.206 458.101 119.843C458.455 120.569 458.722 121.334 458.898 122.122C459.129 123.695 458.89 125.301 458.209 126.738C457.529 128.175 456.439 129.379 455.075 130.198C452.256 131.781 449.701 130.77 448.315 126.641C448.276 125.599 448.364 124.555 448.579 123.534C448.745 122.835 449.094 122.192 449.588 121.67C449.935 121.405 451.688 120.13 452.079 120.449C449.633 123.694 450.782 129.745 454.53 127.865Z" fill="#101D2D"/>
<path d="M426.827 120.13C422.29 117.775 420.094 123.046 421.392 126.439C421.848 127.617 422.795 128.493 425.179 127.722C425.93 127.484 425.803 129.18 425.474 129.587L424.772 130.253C424.625 130.435 423.854 130.33 423.643 130.253C419.968 129.019 418.832 127.098 419.435 120.971C419.544 120.335 419.826 119.741 420.25 119.255C420.674 118.769 421.225 118.41 421.841 118.216C422.741 117.842 423.683 117.579 424.646 117.431C428.272 117.431 427.522 119.255 431.569 120.698C431.919 120.747 432.586 121.034 432.6 121.399C432.634 121.943 432.513 122.485 432.249 122.962C430.958 123.109 422.984 123.299 420.634 123.116C419.933 123.06 420.957 121.974 421.02 121.939C421.371 121.784 429.836 122.198 429.626 121.939C429.147 121.352 427.472 120.527 426.827 120.13Z" fill="#101D2D"/>
<path d="M351.579 119.142C351.88 119.142 352.645 119.597 352.581 119.892C351.179 126.201 351.074 127.82 354.37 129.447C355.071 129.79 356.313 131.108 355.773 131.788C355.148 132.622 352.266 131.234 351.754 130.814C351.331 130.287 350.877 129.786 350.393 129.313C349.166 128.136 349.334 123.845 349.411 119.59C349.411 119.373 349.411 118.574 349.643 118.567L351.579 119.142Z" fill="#101D2D"/>
<path d="M350.983 115.868C350.555 115.862 350.137 115.731 349.783 115.489V115.489C349.455 115.263 349.222 114.922 349.13 114.534C349.038 114.145 349.093 113.736 349.285 113.386C349.538 112.938 350.05 111.984 351.004 112.047C351.299 112.073 351.581 112.186 351.812 112.372C352.043 112.558 352.213 112.809 352.301 113.092C352.912 114.494 352.393 115.195 352.035 115.517C351.737 115.755 351.364 115.879 350.983 115.868V115.868Z" fill="#101D2D"/>
<path d="M402.076 114.711C401.555 114.507 401.068 114.226 400.631 113.877C400.586 113.725 400.573 113.565 400.592 113.408C400.611 113.251 400.662 113.099 400.743 112.962C400.823 112.825 400.93 112.707 401.058 112.613C401.186 112.52 401.332 112.454 401.487 112.419C402.231 112.335 403.339 112.65 403.198 113.295C403.114 113.667 402.595 114.711 402.076 114.711Z" fill="#101D2D"/>
<path d="M397.237 115.384C396.933 115.379 396.638 115.284 396.388 115.111C395.905 114.788 395.827 114.291 395.687 113.709C395.603 113.4 395.919 112.587 396.592 112.622C396.872 112.622 397.931 112.811 398.184 113.4C398.619 114.396 398.254 114.9 397.995 115.118C397.784 115.298 397.514 115.392 397.237 115.384Z" fill="#101D2D"/>
<path d="M466.39 129.762C466.467 127.294 466.032 123.116 467.309 121.532C468.01 120.698 468.206 120.305 469.413 120.403C469.953 120.453 470.318 120.908 470.479 121.932C470.584 122.584 472.036 122.142 472.934 122.065C473.186 122.065 473.207 121.798 473.214 121.546C473.23 120.723 473.204 119.899 473.137 119.079C471.679 118.661 470.269 118.092 468.929 117.382C467.723 117.382 467.014 117.382 466.292 117.999C465.317 118.854 464.938 119.128 465.043 120.719C465.043 120.915 464.503 120.354 463.374 119.198C462.119 119.022 461.642 118.805 460.898 118.665C460.835 118.653 460.196 118.601 460.134 118.616C459.805 118.697 460.565 119.949 460.632 120.109C461.971 120.859 463.374 121.371 463.753 123.852C463.753 127.042 463.711 130.204 463.711 131.262C463.71 131.297 463.72 131.332 463.738 131.362C463.756 131.392 463.783 131.416 463.814 131.432C463.845 131.448 463.88 131.455 463.915 131.453C463.95 131.45 463.984 131.437 464.012 131.416C464.545 131.003 465.815 130.084 466.39 129.762Z" fill="#101D2D"/>
<path d="M368.348 125.275C364.701 119.857 362.682 111.676 369.31 102.493C373.37 96.8844 382.635 95.8328 386.899 98.9874C388.947 100.503 390.259 101.602 390.61 103.039C390.75 103.614 388.316 105.142 386.977 104.603C385.637 104.063 384.038 100.186 381.794 99.7586C377.628 98.9664 372.178 102.331 370.011 107.049C368.986 109.374 368.65 111.537 368.959 114.059C369.268 116.581 369.859 119.761 371.414 121.77C375.271 126.068 377.354 127.729 382.06 127.477C385.125 127.308 386.177 122.675 386.899 120.13C387.187 119.107 385.076 117.431 386.142 117.403C386.142 117.403 390.981 117.228 393.029 117.347C393.548 117.382 393.548 119.52 393.029 119.576H391.458C389.873 119.688 389.487 120.326 389.473 120.74C389.473 120.74 388.681 126.678 391.388 129.033L393.085 128.921C393.534 129.159 394.109 132.04 393.597 132.082H390.091C389.024 131.907 388.4 126.474 388.372 126.068C388.372 126.068 386.493 128.781 384.816 130.386C381.934 132.286 374.935 135.062 368.348 125.275Z" fill="#101D2D"/>
<path d="M408.585 113.008C408.318 114.185 407.553 113.652 407.21 114.494C406.985 115.04 407.68 115.426 408.234 115.812C407.954 118.959 407.533 124.792 407.883 127.54C408.185 129.152 408.297 130.218 409.987 130.533C411.573 130.666 414.876 130.876 415.598 130.182C417.106 128.255 415.851 128.507 413.494 128.43C412.949 128.288 411.842 128.023 411.551 127.54C410.668 125.009 410.065 122.604 410.689 117.564C410.892 115.945 410.45 115.573 412.912 115.601C414.073 115.597 415.231 115.48 416.369 115.251C419.028 114.55 419.785 112.552 419.287 112.384C419.133 112.384 416.931 111.802 416.075 112.678C414.932 113.835 412.877 113.814 412.877 113.814C412.302 113.814 411.32 114.073 411.221 112.839C411.032 110.589 411.348 105.829 414.027 102.661C414.216 102.443 412.933 98.1811 411.278 100.705C409.791 102.913 409.525 108.914 408.585 113.008Z" fill="#101D2D"/>
<path d="M474.239 122.794C473.439 125.542 473.313 127.084 474.562 129.103C475.186 130.091 477.858 129.706 478.321 130.624C478.98 131.928 478.454 135.37 478.454 135.37C478.75 135.749 479.106 136.078 479.506 136.344C481.139 136.272 482.772 136.486 484.331 136.975C486.667 137.803 488.133 140.179 488.806 142.843C491.752 154.452 473.208 157.781 466.966 151.514C466.138 150.687 467.843 155.531 468.853 156.127C472.934 158.525 478.159 159.632 484.731 157.094C494.943 153.12 493.709 146.762 490.861 140.971C489.568 138.519 487.427 136.62 484.836 135.629C484.416 135.461 480.811 133.625 480.846 133.176C480.846 133.176 480.144 130.856 481.133 130.211C481.133 130.211 483.861 128.269 484.037 127.869C484.829 126.054 483.861 122.072 483.861 122.072C483.427 121.763 482.29 122.955 482.122 123.158C482.591 123.944 482.733 124.882 482.52 125.771C482.306 126.66 481.753 127.431 480.979 127.918C478.117 129.923 474.814 125.184 477.304 122.107C478.707 120.319 479.871 120.88 480.986 121.497C480.986 121.497 483.139 121.434 482.823 120.558C482.732 120.291 481.161 119.492 480.257 119.156C478.047 118.321 475.017 120.151 474.239 122.794Z" fill="#101D2D"/>
</svg>
