<svg width="6732" height="2873" viewBox="0 0 6732 2873" fill="none" xmlns="http://www.w3.org/2000/svg">
<path d="M690.501 3.63567L490.331 2683.26C549.049 2648.4 600.987 2615.25 650.833 2583.44C793.005 2492.71 918.153 2412.84 1135.03 2334.99C1225.43 1845.99 1244.01 1587.28 1275.64 1146.65L1275.64 1146.63C1281.1 1070.64 1286.94 989.236 1293.61 900.31C1397.29 874.128 1459.89 865.167 1576.97 856.126C1711.82 864.154 1787.63 868.809 1953.91 900.31C2305.27 1158 2535.07 1310.01 2866.38 1510.66C3238.19 1534.94 3444.88 1540.36 3810.04 1531.88V1123.83L3870 1036L3838.63 1010.88L3716.45 900.31L3602.07 785.952L3201.73 1060.48C2983.01 1048.11 2859.34 1033.17 2637.61 996.475L2645.41 840.532L2663.61 567.631L2458.24 528.645L2427.04 973.952L2299.66 869.122C2148.92 741.648 2060.34 649.785 1934.39 519.179C1914.26 498.301 1893.17 476.434 1870.72 453.273C1533.52 574.437 1343.78 640.385 999.855 741.768V528.645V97.2017C884.061 71.0588 818.344 54.7246 690.501 3.63567Z" fill="#4273B4"/>
<path d="M4488.53 1079.65L4697.11 1188.39L4721.53 1912.83C4849.14 1888.95 4931.83 1890.56 5073 1898L5055.25 1562.82C5267.44 1570.4 5386.38 1569.18 5598.57 1560.47L5580.37 1310.96L5622.23 1256.38L5598.21 1232.99L5559.57 1199.2L5411.4 1051.06L5167.03 1281.24C5029.29 1278.95 4953.88 1272.82 4821.29 1256.38L4746.84 1175.81L4660.11 1070.68L4600.32 998.802L4545.73 928.9L4384.55 1079.65H4488.53Z" fill="#4273B4"/>
<path d="M6732 1620.25L6633.21 1609.85L6521.43 1560.47C6413.12 1499.9 6382.96 1474.03 6331.75 1430.09C6310.66 1412 6286.66 1390.4 6251.5 1362.5L6316.06 1843.77C6494.4 1875.85 6567.98 1869.13 6707.88 1856.36C6715.7 1855.64 6723.73 1854.91 6732 1854.16V1620.25Z" fill="#4273B4"/>
<path d="M5933.92 1256.25L6045.7 1266.64L6251.5 1362.5L6210.66 1314.72L6170.48 1266.64L6089.9 1162.68L6053.5 1105.5L5933.92 1256.25Z" fill="#4273B4"/>
<path d="M490.331 2683.26L690.501 3.63567C552.348 -7.57627 474.143 7.6225 334.354 42.6215C325.657 164.537 317.699 280.142 310.074 390.917C253.094 1218.7 190.18 1964.01 0.5 2870.5C182.198 2886.67 327 2795 490.331 2683.26Z" fill="#315787"/>
<path d="M2427.04 973.952L2458.24 528.645L2317.86 617.013L2299.66 869.122L2427.04 973.952Z" fill="#315787"/>
<path d="M999.855 741.768C1343.78 640.385 1533.52 574.437 1870.72 453.273C1526.39 498.135 1336.17 513.002 999.855 528.645V741.768Z" fill="#315787"/>
<path d="M3870 1036L3934.82 1043.82V840.532L3838.63 856.126V1010.88L3870 1036Z" fill="#315787"/>
<path d="M4384.55 1079.65L4545.73 928.9C4483.86 944.205 4430.45 957.651 4380.19 970.302C4269.16 998.254 4173.54 1022.33 4036.2 1053.99C4043.08 1054.65 4049.86 1055.29 4056.55 1055.91C4167.83 1066.23 4255.1 1071.98 4384.55 1079.65Z" fill="#315787"/>
<path d="M4660.11 988.678L4600.32 998.802L4660.11 1070.68V988.678Z" fill="#315787"/>
<path d="M5167.03 1281.24L5411.4 1051.06C5248.13 1094.46 5156.57 1118.21 4992.86 1149.82V1199.2L5055.25 1207L5167.03 1281.24Z" fill="#315787"/>
<path d="M3201.73 1060.48L3602.07 785.952C3429.06 839.874 3332.6 866.495 3162.73 900.31L3201.73 1060.48Z" fill="#315787"/>
<path d="M4925.27 1191.4V1017.27L4852.48 1025.07V1185.04L4925.27 1191.4Z" fill="#315787"/>
<path d="M5622.23 1256.38L5640.16 1232.99L5933.92 1256.38L6053.5 1105.64L6011.91 1111.25C5907.02 1141.09 5822.6 1154.51 5732.9 1168.77C5678.91 1177.36 5623.01 1186.25 5559.58 1199.2L5598.21 1232.99L5622.23 1256.38Z" fill="#315787"/>
<path d="M6053.5 1105.64L6089.9 1162.82V1051.06L6011.91 1071.85V1111.25L6053.5 1105.64Z" fill="#315787"/>
<path d="M6089.9 1051.06V1162.82L6170.48 1266.78L6210.66 1314.86L6251.5 1362.5C6286.66 1390.4 6310.66 1412 6331.75 1430.09C6382.96 1474.03 6413.12 1499.9 6521.43 1560.47C6509.93 1512.15 6513.91 1447.5 6517.79 1384.34C6520.04 1347.84 6522.25 1311.83 6521.43 1279.77C6402.85 1278.52 6326.74 1270.24 6207.4 1256.38V1139.42H6165.28V1051.06H6089.9Z" fill="#315787"/>
<path d="M3162.73 900.31C2960.44 881.918 2847.18 868.153 2645.41 840.532L2637.61 996.476C2859.34 1033.17 2983.01 1048.11 3201.73 1060.48L3162.73 900.31Z" fill="#3A659D"/>
<path d="M4036.2 1053.99V856.126L3934.82 840.532V1043.82C3971.6 1047.67 4004.95 1051.02 4036.2 1053.99Z" fill="#3A659D"/>
<path d="M4821.29 1256.38C4953.88 1272.82 5029.29 1278.95 5167.03 1281.24L5055.25 1207L4992.86 1199.2V1149.82V1025.07L4925.27 1017.27V1191.4L4852.48 1185.04C4852.48 1185.04 4788.41 1180.11 4746.84 1175.81L4821.29 1256.38Z" fill="#3A659D"/>
<path d="M4746.84 998.802L4660.11 988.678V1070.68L4746.84 1175.81V1061.45V998.802Z" fill="#3A659D"/>
<path d="M1567.62 847.803L1510.4 2230.82C2475.26 2174.8 3012.55 2119.23 3965.76 1986.45L3966 1622.5C3617.43 1644.41 3419.41 1647.93 3058 1622.5C2986.61 1580.07 2920.36 1540.41 2857.73 1502.49C2526.24 1301.79 2296.32 1149.75 1944.77 891.997C1778.39 860.489 1702.55 855.833 1567.62 847.803Z" fill="#B6CAE4"/>
<path d="M4152 1131.5L4152.02 2048.52C4380.51 2047.18 4505.98 2031.45 4726.85 1986.13L4724.25 1913.34L4698 1183C4484.9 1175.44 4365.55 1166.15 4152 1131.5Z" fill="#B6CAE4"/>
<path d="M5780.26 1622.18C5553.74 1630.31 5420.13 1632.37 5193.62 1619.8L5209.9 1912.83C5433.88 1912.85 5568.3 1905.35 5793.26 1871.74L5780.26 1622.18Z" fill="#B6CAE4"/>
<path d="M5950.59 1912.83C6102.14 1915 6186.79 1910.74 6328.09 1890.95L6315.74 1835.37L6251.5 1362.5C6118.59 1361.97 5909.9 1302.35 5909.9 1302.35L5950.59 1912.83Z" fill="#B6CAE4"/>
<path d="M1569.2 847.482C1452.12 856.525 1389.52 865.488 1285.84 891.676C1279.18 980.622 1273.33 1062.04 1267.88 1138.05L1267.87 1138.08C1236.24 1578.8 1225.4 1845.89 1135 2335C1288.3 2288.1 1364.24 2260.43 1512.01 2230.5L1569.2 847.482Z" fill="#6E96CA"/>
<path d="M3966 1622.5L3966.04 1986.13L4151.75 2048.4L4152 1131.5L3870 1036L3802.27 1115.25V1523.39L3966 1622.5Z" fill="#6E96CA"/>
<path d="M5200.38 1622.93L5055.24 1562.82L5073 1898L5216.46 1913.34L5200.38 1622.93Z" fill="#6E96CA"/>
<path d="M5572.6 1302.42L5590.8 1551.99L5777.97 1622.18L5790.97 1871.75L5950.59 1912.83L5909.9 1302.35L5632.4 1224.43L5614.46 1247.83L5572.6 1302.42Z" fill="#6E96CA"/>
<path d="M3966 1622.5L3804.66 1524.22C3439.51 1532.7 3230.31 1527.29 2858.5 1503C2921.1 1540.92 2986.65 1580.07 3058 1622.5C3419.21 1647.93 3617.62 1644.41 3966 1622.5Z" fill="#86A7D3"/>
<path d="M3870 1036L4152 1131.5C4365.43 1166.15 4485.02 1175.44 4698 1183L4483.35 1072.06H4379.37C4249.92 1064.39 4162.64 1058.64 4051.37 1048.31C4044.67 1047.69 4037.9 1047.06 4031.02 1046.4C3999.76 1043.42 3966.42 1040.07 3929.63 1036.22L3870 1036Z" fill="#86A7D3"/>
<path d="M5780.56 1623.18L5593.39 1552.99C5381.2 1561.71 5267.44 1570.4 5055.25 1562.82L5200.38 1622.93C5426.78 1635.5 5554.17 1631.32 5780.56 1623.18Z" fill="#86A7D3"/>
<path d="M5632.5 1224.5L5910.54 1303.43C5910.54 1303.43 6118.66 1361.97 6251.5 1362.5L6040.52 1259.23L5928.74 1248.83L5632.5 1224.5Z" fill="#86A7D3"/>
</svg>
