<svg width="824" height="160" viewBox="0 0 824 160" fill="none" xmlns="http://www.w3.org/2000/svg">
<g clip-path="url(#clip0)">
<path d="M0 31.5299C7.68 28.5299 14.44 26.4599 21 24.5299C105.46 -0.240097 102.75 69.5299 37.42 75.8699C28.62 76.7299 5.55 69.0699 17.87 60.9999C26.72 55.2099 36.37 53.1499 44.02 57.6899C63.11 69.0099 78.02 105.62 86.69 117.08C95.69 132.79 114.13 147.93 130.03 150.28C138.53 151.53 146.63 150.46 153.71 138.96L160.77 133.31C143.72 176.76 105.72 158.73 88.5 129.98C74.05 105.83 63.1 74.9799 36.6 61.8699C32.24 59.7099 17.11 64.8699 23.7 67.9799C28.36 70.1499 33.31 69.9799 38.28 68.7399C56.28 64.1299 76.61 54.1899 75.37 41.0599C74.27 29.3499 61.07 21.3499 4.67999 33.4699C4.4092 33.5292 4.12816 33.5229 3.86029 33.4516C3.59242 33.3802 3.34549 33.246 3.14001 33.0599L0 31.5299Z" fill="black"/>
<path d="M50.8098 3.34004C50.9377 3.43107 51.0423 3.55091 51.1153 3.68989C51.1883 3.82888 51.2275 3.98311 51.2298 4.14006C51.1598 8.53006 49.5798 14.56 49.3198 18.77C49.0198 23.15 46.6198 26.8401 46.0398 31.1701C45.4598 35.5001 44.7198 39.7801 43.7198 44.0401C42.7198 48.3001 41.6698 52.5301 40.7198 56.8001L37.9398 69.59L35.0598 82.3601C33.0598 90.6701 31.7198 99.2401 29.6998 107.54C29.6045 107.909 29.4267 108.25 29.1798 108.54L26.3998 111.79C26.31 111.895 26.1889 111.967 26.0544 111.997C25.9199 112.028 25.7793 112.014 25.6535 111.957C25.5277 111.901 25.4234 111.806 25.356 111.686C25.2887 111.565 25.262 111.427 25.2798 111.29C26.4998 102.56 29.3798 89.87 30.3798 81.8801L31.6298 68.8801L34.1798 56.0801C34.7998 51.7601 34.9998 47.0101 35.5398 42.6701C36.0798 38.3301 37.7198 34.48 38.2198 30.16C38.7198 25.84 38.9398 20.86 40.2198 16.65C41.3998 12.74 43.8598 4.90005 45.2998 0.440047C45.3344 0.343957 45.3925 0.258097 45.4689 0.190322C45.5453 0.122547 45.6375 0.075029 45.737 0.0521383C45.8366 0.0292476 45.9402 0.0317198 46.0386 0.0593099C46.1369 0.0869 46.2267 0.138711 46.2998 0.210036L50.8098 3.34004Z" fill="black"/>
<path d="M92.7995 68.8201C104.33 68.1601 104.72 79.6301 106.72 87.1601C107.39 89.6001 111.4 93.7001 113.42 92.1601C118.9 88.0301 120.1 76.4501 120.42 68.4501H121.61C122.61 76.6101 128.75 92.2101 126.79 100.98C126.6 101.86 124.34 102.41 123.91 101.62C119.59 93.7001 115.71 75.8401 119.74 68.1601C123.38 61.1601 124.9 82.7701 123.64 85.7401C122.46 95.5501 110.3 107.74 102.28 96.4301C97.6895 88.4301 103.83 81.2001 95.3595 75.4301C95.0395 75.2901 92.4295 68.7901 92.7995 68.8201Z" fill="black"/>
<path d="M173.39 56.3699C174.44 57.2199 175.47 61.6699 175.64 63.5299C175.647 63.5856 175.642 63.6422 175.626 63.696C175.61 63.7498 175.582 63.7995 175.546 63.8419C175.509 63.8844 175.463 63.9186 175.413 63.9424C175.362 63.9661 175.306 63.9789 175.25 63.9799C166.42 64.2299 154.42 52.7799 152.11 45.9799C149.73 38.9799 149.85 29.6999 150.59 22.5399C151.41 14.5399 161.11 -1.53012 165.09 12.3999C169.44 27.5999 167.69 47.5699 168.29 65.5399C168.29 71.4299 168.8 78.0099 166.78 83.6899C163.78 95.5099 156.98 100.45 151 101.4C143.38 100.26 137.86 93.2799 140.59 81.6299C141.05 80.3199 145.31 75.4799 147.81 73.4399C148.44 72.9299 151.07 72.9399 152.53 73.2099C152.58 73.2246 152.623 73.255 152.654 73.2965C152.685 73.3379 152.702 73.3882 152.702 73.4399C152.702 73.4916 152.685 73.5419 152.654 73.5833C152.623 73.6248 152.58 73.6551 152.53 73.6699C145.46 76.1599 143.88 86.7999 146.91 91.5999C152.36 100.21 161.2 84.4599 163.38 78.9799C168.26 66.7299 166.23 55.2099 164.93 42.1499C163.28 32.8899 162.93 22.6099 159.18 14.0799C159.18 14.0799 159.06 13.9399 159.09 14.0099C159.438 14.3012 159.867 14.4793 160.319 14.5204C160.771 14.5615 161.225 14.4636 161.62 14.2399C156.43 22.7999 151.47 40.3699 159.14 46.9499C165.36 50.0399 168.03 52.0299 173.39 56.3699Z" fill="black"/>
<path d="M186.54 76.1601C186.582 76.1388 186.63 76.1292 186.677 76.1322C186.725 76.1351 186.771 76.1506 186.81 76.177C186.85 76.2034 186.882 76.2398 186.903 76.2825C186.924 76.3252 186.933 76.3726 186.93 76.4201C186.14 84.3701 184.98 94.5001 194.68 91.4201C198.33 90.1501 199.68 86.5101 197.84 82.5801C197.452 81.841 197.263 81.0142 197.29 80.1801C197.48 77.4701 192.21 74.7101 189.68 75.1801C188.86 73.8501 190.94 69.9401 191.46 69.2901C192.71 68.6401 196.13 68.9201 198.24 69.2901C200.38 71.6501 200.88 72.8501 202.97 77.2901C208.67 96.4901 184.74 110.45 180.4 92.0901V92.0301C180.13 87.9401 179.51 86.5801 180.24 81.9501C180.265 81.5786 180.372 81.2174 180.554 80.8923C180.735 80.5672 180.987 80.2864 181.29 80.0701C182.95 79.0401 185.52 76.7201 186.54 76.1601Z" fill="black"/>
<path d="M695.03 79.16C695.03 79.23 695.08 79.16 695.03 79.27V79.44C694.996 79.5848 694.973 79.7318 694.96 79.88C694.91 80.18 694.88 80.5 694.86 80.81C694.825 81.4495 694.825 82.0905 694.86 82.73C694.865 83.964 694.949 85.1965 695.11 86.42C695.4 88.75 696.28 90.85 697.17 91.34C697.646 91.6402 698.182 91.8315 698.74 91.9C699.665 92.0242 700.601 92.0443 701.53 91.96C702.08 91.89 702.63 91.87 703.21 91.74L704.07 91.58L704.76 91.4C705.658 91.1546 706.484 90.6987 707.17 90.07C708.635 88.5478 709.541 86.5736 709.74 84.47C710.074 82.1246 709.886 79.7345 709.19 77.47C708.5 75.21 707.26 72.96 705.33 71.94C704.839 71.6844 704.302 71.5313 703.75 71.49C703.198 71.4488 702.643 71.5202 702.12 71.7C700.929 72.1159 699.836 72.7729 698.91 73.63C698.878 73.6629 698.84 73.6892 698.798 73.7071C698.756 73.725 698.711 73.7342 698.665 73.7342C698.619 73.7342 698.574 73.725 698.532 73.7071C698.49 73.6892 698.452 73.6629 698.42 73.63C698.37 73.5677 698.342 73.49 698.342 73.41C698.342 73.3299 698.37 73.2522 698.42 73.19C699.264 72.0402 700.337 71.0768 701.57 70.36C702.267 69.9889 703.03 69.759 703.816 69.6835C704.602 69.608 705.395 69.6884 706.15 69.92C707.635 70.4215 708.96 71.3084 709.99 72.49C710.986 73.6047 711.821 74.8535 712.47 76.2C713.766 78.9006 714.449 81.8545 714.47 84.85C714.5 88.1318 713.414 91.3263 711.39 93.91C710.264 95.2578 708.876 96.3634 707.31 97.16C706.92 97.35 706.52 97.55 706.13 97.72L705.13 98.12C704.44 98.41 703.66 98.61 702.91 98.84C701.225 99.2881 699.469 99.4035 697.74 99.18C695.628 98.8835 693.688 97.8533 692.26 96.27C690.981 94.7771 690.192 92.9267 690 90.97C689.821 89.3575 689.926 87.7261 690.31 86.15C690.65 84.6885 691.185 83.2793 691.9 81.96C692.263 81.3038 692.674 80.6754 693.13 80.08C693.31 79.7629 693.507 79.4558 693.72 79.16C693.86 79.03 694.04 78.89 694.2 78.77C694.302 78.6993 694.409 78.6359 694.52 78.58C694.665 78.5141 694.821 78.4768 694.98 78.47C695.015 78.47 695.048 78.4837 695.072 78.5081C695.096 78.5324 695.11 78.5655 695.11 78.6L695.03 79.16Z" fill="black"/>
<path d="M213.2 81.06C234.31 65.45 233.53 52.7701 233.35 28.1401C233.266 26.2845 233.056 24.4369 232.72 22.6101C231.42 20.4901 229.26 19.3401 227.58 21.6601C220.09 31.9501 221.83 43.2701 220.97 56.4701C220.51 70.2501 219.8 90.47 227.51 103.47C227.76 103.89 227.12 104.33 226.67 104.14C224.552 103.091 222.596 101.744 220.86 100.14C208.77 75.9901 214.21 33.6101 223.46 9.22005V9.14006C234.46 -9.85994 240.2 42.2701 237.71 49.0401C234.55 63.7901 229.11 76.54 216.53 85.22L216.46 85.27C214.85 86.1635 213.18 86.9421 211.46 87.6001C211.378 87.6179 211.293 87.6152 211.212 87.5922C211.131 87.5692 211.058 87.5266 210.997 87.4683C210.937 87.4099 210.892 87.3375 210.866 87.2576C210.841 87.1777 210.835 87.0926 210.85 87.0101C211.27 85.3601 212.94 80.79 213.2 81.06Z" fill="black"/>
<path d="M721.029 87.83C720.949 87.78 721.159 87.83 721.339 87.73C721.543 87.6476 721.74 87.5506 721.93 87.44C722.32 87.1939 722.698 86.9269 723.06 86.64C723.799 86.0442 724.507 85.4099 725.179 84.74C726.526 83.3884 727.788 81.9558 728.959 80.45C736.027 71.4759 740.626 60.8099 742.299 49.51C743.385 42.0973 743.046 34.5454 741.299 27.26C740.432 23.6336 739.258 20.0875 737.789 16.66C737.619 16.22 737.42 15.8 737.23 15.38C737.04 14.96 736.829 14.47 736.669 14.16C736.424 13.7698 736.079 13.4522 735.669 13.24C735.285 13.0165 734.844 12.9089 734.4 12.93C734.25 12.93 734.169 12.98 734.179 13C734.189 13.02 734.249 13 734.179 13L733.48 15.12C733.25 16.01 732.97 16.86 732.77 17.76C732.34 19.55 731.959 21.37 731.669 23.21C731.069 26.9 730.669 30.66 730.439 34.43C729.899 41.97 729.67 49.58 729.51 57.19C729.4 60.99 729.42 64.8 729.51 68.62C729.6 72.44 729.669 76.24 729.819 80.05C729.969 83.86 730.26 87.67 730.72 91.44C730.94 93.33 731.199 95.22 731.569 97.07C731.895 98.9389 732.404 100.771 733.089 102.54C733.126 102.628 733.127 102.726 733.091 102.814C733.056 102.902 732.987 102.973 732.9 103.01C732.829 103.039 732.75 103.044 732.676 103.024C732.602 103.004 732.536 102.961 732.49 102.9C731.309 101.287 730.335 99.5339 729.589 97.68C728.83 95.8547 728.162 93.9924 727.589 92.1C726.482 88.3244 725.594 84.488 724.929 80.61C724.209 76.75 723.759 72.85 723.339 68.96C722.919 65.07 722.72 61.16 722.55 57.24C722.254 49.3925 722.588 41.5339 723.55 33.74C724.07 29.83 724.719 25.92 725.549 22.03C725.959 20.08 726.469 18.14 727.049 16.2C727.309 15.2 727.68 14.26 727.99 13.3C728.17 12.81 728.369 12.3 728.559 11.85L728.839 11.13L728.919 10.95L729.069 10.64C729.169 10.44 729.28 10.23 729.4 10.03C729.928 9.20363 730.671 8.53651 731.549 8.09998C732.347 7.69645 733.226 7.48093 734.12 7.46997C735.611 7.46883 737.072 7.88867 738.335 8.68122C739.598 9.47376 740.612 10.6068 741.26 11.95C741.51 12.52 741.65 12.95 741.85 13.39C742.05 13.83 742.22 14.32 742.39 14.79C743.798 18.5333 744.882 22.3909 745.63 26.32C747.139 34.1748 747.139 42.2452 745.63 50.1C744.065 57.8575 741.129 65.2737 736.959 72C734.915 75.3443 732.572 78.4971 729.959 81.42C728.653 82.8783 727.26 84.2574 725.789 85.55C725.048 86.2004 724.27 86.808 723.459 87.37C723.047 87.6532 722.62 87.9136 722.18 88.15C721.941 88.2695 721.694 88.3699 721.439 88.45C721.297 88.4946 721.149 88.5215 721 88.53C720.887 88.5387 720.773 88.5236 720.666 88.4857C720.559 88.4479 720.462 88.388 720.379 88.31C720.317 88.241 720.285 88.1501 720.29 88.0573C720.294 87.9645 720.336 87.8773 720.404 87.815C720.473 87.7526 720.564 87.7203 720.657 87.7249C720.75 87.7296 720.837 87.771 720.899 87.84L721.029 87.83Z" fill="black"/>
<path d="M274.41 25.6999C274.33 26.1999 272.56 26.2099 272.27 25.7899C255.72 1.78995 259.06 22.17 258.51 36.64C257.72 57.27 258.07 76.94 258.7 97.64C258.583 98.3488 258.326 99.0274 257.945 99.6366C257.564 100.246 257.066 100.774 256.48 101.19L254.8 102.19C253.95 102.19 252.8 102.54 252.53 101.75L254.18 56.4899L236.99 57.2899C236.839 57.2945 236.69 57.2567 236.559 57.1807C236.428 57.1047 236.321 56.9936 236.25 56.86C236.052 56.5278 235.898 56.1716 235.79 55.8V54.6599C235.811 54.1435 236.031 53.6551 236.404 53.2972C236.776 52.9392 237.273 52.7395 237.79 52.7399C245.89 52.9399 255.53 54.3399 263.79 52.4099C265.79 51.9499 268.73 52.4099 270.4 51.2799C272.023 50.0718 273.321 48.4813 274.18 46.6499C274.58 45.8899 275.85 46.8299 275.99 47.6499L276.61 51.4899C277.35 53.0499 277.61 54.6499 276.01 55.2599C264.77 59.57 249.76 55.6199 237.89 56.0699C237.619 56.0849 237.347 56.0443 237.091 55.9505C236.836 55.8567 236.602 55.7117 236.404 55.5245C236.207 55.3373 236.05 55.1117 235.942 54.8616C235.835 54.6115 235.78 54.3421 235.78 54.0699L236.66 52.7299L255.36 55.5999L257.48 98.0299C257.627 98.3299 257.697 98.6619 257.683 98.9957C257.669 99.3295 257.571 99.6545 257.399 99.9409C257.227 100.227 256.986 100.466 256.698 100.635C256.41 100.805 256.084 100.899 255.75 100.91C254.66 100.91 252.44 102.85 252.54 101.76C255.02 73.7599 250.23 42.0399 252.59 13.5199C252.816 11.7514 253.533 10.0816 254.66 8.69995C265.25 -2.95005 269.29 11.32 274.52 20.11L274.41 25.6999Z" fill="black"/>
<path d="M373.15 15.34C357.75 11.96 333.92 19.4301 336.29 36.8501C342.45 54.4401 365.05 53.7801 378.6 64.6301C393.46 78.9301 369.93 104.26 352.6 105.13C343.09 105.94 326.96 103.85 321.09 94.2201C319.09 91.0001 318.53 86.9401 318.09 84.2201C318.057 84.0285 318.067 83.8319 318.12 83.6448C318.173 83.4577 318.268 83.2849 318.396 83.139C318.525 82.9932 318.684 82.878 318.863 82.8021C319.042 82.7261 319.236 82.6912 319.43 82.7001L325.33 83.5801C336.23 93.6701 347.48 100.1 361.04 93.8001C365.149 91.8937 368.387 88.5086 370.11 84.3201C380.04 60.3801 347.21 58.6701 333.44 44.09C314.6 24.24 351.16 -2.51995 368.98 11.37L373.15 15.34Z" fill="black"/>
<path d="M405.88 22.66C406.37 22.44 407.07 25.3099 406.74 25.7399C393.14 43.2199 395.74 99.32 406.92 97.57C407.47 97.76 406.92 102.11 406.36 102.37C404.79 103.14 400.3 102.74 399.15 103.16C399.027 103.203 398.893 103.199 398.774 103.147C398.655 103.095 398.561 102.999 398.51 102.88C392.9 90.15 391 69.02 391.67 55.57C391.67 54.68 396.04 56.14 396.85 56.39C401.08 57.52 404.13 56.39 407.4 56.79C409.794 57.0688 412.21 56.4914 414.22 55.16C416.615 54.6611 419.046 54.3469 421.49 54.22C421.567 54.2203 421.643 54.2437 421.707 54.2872C421.771 54.3307 421.821 54.3923 421.85 54.4642C421.879 54.5361 421.886 54.615 421.87 54.6908C421.854 54.7667 421.815 54.836 421.76 54.89C419.12 57.47 416.1 60.68 410.47 61.17C403.32 61.79 400.12 63.0399 396.13 62.3999L397.27 58.85C397.314 58.8347 397.361 58.8308 397.407 58.8386C397.453 58.8463 397.497 58.8655 397.533 58.8943C397.57 58.9232 397.599 58.9607 397.618 59.0036C397.636 59.0466 397.644 59.0934 397.64 59.14C395.86 72.98 383.44 53.59 400.44 26.88C402.037 25.2151 403.87 23.7934 405.88 22.66Z" fill="black"/>
<path d="M426.41 79.8099C427.04 81.5599 460.65 74.3899 458.79 81.2199C456.44 89.8399 447.17 76.3899 442.74 74.6499C433.48 69.1099 424.35 82.3799 427.74 91.2299C428.94 94.3299 436.14 94.6399 440.74 95.4599C442.74 95.8199 438.54 97.9899 437.74 99.0699L437.41 101.22C437.228 101.452 436.993 101.639 436.726 101.764C436.458 101.889 436.165 101.949 435.87 101.94C425.37 101.53 420.59 92.9399 423.34 76.7699C423.93 73.2699 425.58 70.1499 428.85 68.8499C429.29 68.6699 434.14 67.5299 434.62 67.4899C448.5 66.4399 447.11 74.3499 457.25 75.8799C457.697 75.9615 458.104 76.1932 458.402 76.5368C458.7 76.8804 458.872 77.3153 458.89 77.7699C458.96 79.8399 459.1 83.0699 458.89 83.1299C450.21 85.7999 433.09 80.6199 426.44 87.0499C426.32 87.1599 426.29 79.4599 426.41 79.8099Z" fill="black"/>
<path d="M536.63 80.0802C537.27 81.8402 570.87 74.6701 569.01 81.4901C566.67 90.1101 557.39 76.6701 553.01 74.9201C543.74 69.3901 534.62 82.6601 538.01 91.5001C539.21 94.6101 545.01 94.6901 549.59 95.5001C551.59 95.8701 548.82 98.2701 547.96 99.3401L547.64 101.5C547.459 101.733 547.225 101.92 546.956 102.043C546.688 102.167 546.395 102.224 546.1 102.21C535.6 101.81 530.82 93.2102 533.56 77.0502C534.15 73.5502 535.8 70.4301 539.07 69.1201C539.52 68.9501 544.37 67.8001 544.84 67.7701C558.73 66.7101 557.33 74.6301 567.47 76.1501C568.38 76.2901 570.62 76.4601 570.65 77.4301C570.534 79.5104 570.014 81.5483 569.12 83.4301C560.44 86.1001 543.32 80.9201 536.66 87.3401C536.54 87.4101 536.51 79.7402 536.63 80.0802Z" fill="black"/>
<path d="M474.95 68.6601C475.11 68.6547 475.269 68.6815 475.418 68.7389C475.567 68.7963 475.703 68.8831 475.818 68.9942C475.932 69.1052 476.024 69.2382 476.086 69.3853C476.148 69.5323 476.18 69.6904 476.18 69.8501C476.08 82.1901 476.31 91.4601 483.6 92.0601C484.14 92.0601 483.92 96.0601 483.81 97.3101C483.72 98.3101 482.08 99.5101 480.62 100.52C479.922 100.996 479.092 101.239 478.248 101.214C477.403 101.188 476.589 100.897 475.92 100.38L473.66 98.6101C471.45 97.1701 471.98 92.4501 470.09 91.4201C466.75 89.6101 468.85 79.2801 469.03 69.7401C469.033 69.5109 469.123 69.2915 469.284 69.1275C469.444 68.9636 469.661 68.8678 469.89 68.8601L474.95 68.6601Z" fill="black"/>
<path d="M472.33 55.67C471.967 55.4147 471.713 55.0334 471.617 54.6006C471.52 54.1678 471.589 53.7147 471.81 53.33C473.41 50.5 474.959 49.33 475.949 51.64C477.939 56.16 474.29 56.98 472.33 55.67Z" stroke="black" stroke-width="7" stroke-miterlimit="10"/>
<path d="M495.18 90.8601C493.88 83.8601 498.11 71.08 505.12 70.09C508.12 69.66 513.06 73.09 513.12 73.09C518.3 78.01 522.51 92.96 521.54 101.43C521.51 101.718 521.375 101.985 521.16 102.18C519.63 103.51 518.09 103.41 515.26 102.34C515.086 102.271 514.932 102.16 514.812 102.017C514.691 101.874 514.608 101.703 514.57 101.52C513.04 94.01 512.32 89.3901 506.67 83.3301L502.81 82.45C500.22 83.7 499.88 88.4501 498.33 91.3301C498.179 91.6552 497.927 91.9228 497.612 92.0928C497.296 92.2628 496.934 92.3261 496.579 92.2732C496.225 92.2203 495.897 92.0541 495.645 91.7994C495.392 91.5446 495.23 91.2151 495.18 90.8601Z" fill="black"/>
<path d="M801.54 87.7299C801.029 85.7123 800.84 83.6266 800.98 81.5499C801.044 79.2168 801.735 76.9439 802.98 74.9699C803.22 74.6766 803.47 74.3866 803.73 74.0999C804.045 73.8074 804.379 73.5368 804.73 73.2899C805.142 73.0372 805.582 72.8325 806.04 72.6799C806.525 72.5335 807.025 72.4429 807.53 72.4099C809.206 72.3969 810.841 72.9266 812.19 73.9199C814.051 75.3135 815.637 77.0392 816.87 79.0099C821.231 85.9068 823.65 93.8529 823.87 102.01C821.3 98.9918 818.982 95.7676 816.94 92.3699C814.94 89.1299 813.02 85.8499 811.09 82.8999C810.869 82.531 810.629 82.1739 810.37 81.8299C810.12 81.4999 809.88 81.1299 809.63 80.8299L808.91 79.9199C808.67 79.6999 808.43 79.4099 808.22 79.2099C807.8 78.7899 807.49 78.6799 807.58 78.5699C807.67 78.4599 807.63 78.4999 807.64 78.4899C807.65 78.4799 807.64 78.4199 807.64 78.4199C807.64 78.4199 807.54 78.4199 807.45 78.4199L807.17 78.5699C806.613 79.0278 806.125 79.5632 805.72 80.1599C805.23 80.8499 804.72 81.6399 804.31 82.4499C803.37 84.1599 802.51 85.8899 801.54 87.7299Z" fill="black"/>
<path d="M586.72 98.7799C586.63 95.0899 588.35 82.0399 583.72 80.5199C583.064 80.2695 582.53 79.7751 582.23 79.1399C581.6 77.8899 580.84 76.5999 579.78 76.2599C579.543 76.1849 579.336 76.0354 579.19 75.8338C579.044 75.6321 578.967 75.3888 578.97 75.1399V73.4699C578.97 73.3035 579.006 73.139 579.074 72.987C579.141 72.8349 579.24 72.6985 579.363 72.5866C579.486 72.4747 579.631 72.3897 579.789 72.3369C579.947 72.2841 580.114 72.2647 580.28 72.2799C593.72 73.5499 594.81 93.4199 593 97.9099C590.92 99.2099 589.54 99.1499 589.65 102.21C589.65 102.55 586.48 102.55 586.45 102.21C585.57 92.2099 587.8 74.3499 593.71 69.5299C594.96 68.5299 596.71 69.0899 598.57 68.9699C600.8 68.8199 605.91 70.8999 608.77 72.7799C608.871 72.8454 608.954 72.9359 609.01 73.0428C609.066 73.1497 609.094 73.2693 609.09 73.3899V77.9299C609.086 78.2213 608.975 78.5009 608.777 78.7151C608.58 78.9293 608.31 79.0628 608.02 79.0899C605.92 79.2699 602.45 80.7399 602.21 79.2099C601.82 76.8199 600.12 76.6999 598.86 76.8099C598.733 76.8197 598.612 76.8648 598.51 76.9399C593.6 80.2199 591.51 92.4199 591.36 98.0699" fill="black"/>
<path d="M639.33 66.3501C639.33 66.3501 608.83 81.9501 625.39 84.2801C641.95 86.6101 621.9 100.16 621.9 100.16" stroke="black" stroke-width="7" stroke-miterlimit="10"/>
<path d="M664.52 10.2899C664.412 10.7841 664.275 11.2716 664.11 11.7499L663.72 13.1599L662.85 15.8699C662.28 17.6799 661.72 19.4799 661.19 21.2899C660.19 24.9199 659.19 28.5299 658.33 32.1899C656.619 39.4304 655.416 46.7817 654.73 54.1899C654.092 61.5621 653.949 68.9686 654.3 76.36C654.536 83.8093 655.517 91.2163 657.23 98.4699L658.67 104.4L654.67 100.06C652.602 97.8675 650.982 95.2928 649.9 92.4799C648.848 89.6663 648.455 86.6492 648.75 83.6599C649.047 80.6967 649.952 77.8268 651.41 75.2299C652.825 72.5619 654.817 70.2424 657.24 68.4399C658.532 67.4979 659.997 66.8184 661.55 66.4399C663.275 65.9983 665.098 66.1317 666.74 66.8199C667.15 67.0099 667.54 67.2499 667.94 67.4699C668.34 67.6899 668.65 68.01 669 68.3C669.57 68.85 670.09 69.3899 670.65 69.95C671.21 70.51 671.65 71.1799 672.12 71.8799C672.588 72.6117 672.974 73.3932 673.27 74.2099C673.597 75.0984 673.78 76.0337 673.81 76.9799C673.81 77.4699 673.81 77.9799 673.71 78.4599C673.608 78.9461 673.481 79.4267 673.33 79.8999C672.661 81.6378 671.556 83.174 670.12 84.36C667.571 86.3978 664.593 87.8305 661.41 88.55L663.01 83.55C669.61 90.42 675.93 97.5499 682.3 104.44C688.67 111.33 695.02 118.07 702.3 123.31C705.885 125.944 709.802 128.093 713.95 129.7C718.152 131.337 722.538 132.456 727.01 133.03C736.09 134.28 745.53 133.79 755.01 133.03L755.14 133.72C746 136.38 736.47 138.23 726.62 137.92C721.64 137.798 716.698 137.004 711.93 135.56C707.071 134.079 702.442 131.925 698.18 129.16C689.77 123.65 683.01 116.49 676.77 109.29C673.65 105.67 670.6 102.04 667.58 98.3999L658.47 87.5599L655.12 83.5599L660.12 82.5599C662.458 82.2075 664.702 81.3915 666.72 80.1599C667.532 79.6224 668.215 78.9121 668.72 78.08C669.127 77.2857 669.213 76.3657 668.96 75.5099C668.843 74.9832 668.662 74.4727 668.42 73.9899C668.16 73.4799 667.82 72.99 667.5 72.45L666.32 70.9699L665.77 70.4299L665.16 69.9999C664.229 69.4828 663.15 69.2993 662.1 69.4799C660.899 69.6738 659.747 70.1019 658.71 70.7399C656.492 72.1614 654.642 74.0872 653.31 76.36C651.949 78.6592 651.097 81.2235 650.81 83.8799C650.564 86.5196 651.001 89.1783 652.08 91.5999C653.173 94.0032 654.789 96.1318 656.81 97.83L654.22 99.42C651.472 92.1449 649.55 84.5841 648.49 76.8799C647.551 69.1271 647.619 61.2855 648.69 53.55C649.699 45.8522 651.499 38.2788 654.06 30.95C655.334 27.3086 656.8 23.7369 658.45 20.2499C659.28 18.5099 660.13 16.79 661.06 15.11C661.53 14.27 661.98 13.4199 662.47 12.5999C662.96 11.7799 663.47 10.9099 663.87 10.1899L664.52 10.2899Z" fill="black"/>
<path d="M770.21 71.6001C767.133 74.5981 764.238 77.7771 761.54 81.1201C760.351 82.6264 759.344 84.2678 758.54 86.0101C757.868 87.5569 757.465 89.2075 757.35 90.8901C757.231 92.734 757.546 94.5802 758.27 96.2801C758.99 98.1101 760.27 99.8501 761.9 100.07C762.79 100.156 763.681 99.9178 764.41 99.4001C765.238 98.843 765.96 98.1419 766.54 97.3301C767.736 95.6094 768.641 93.7041 769.22 91.6901C769.85 89.6901 770.35 87.6201 770.8 85.5901C771.284 83.6181 771.618 81.6124 771.8 79.5901C771.87 78.6681 771.87 77.7422 771.8 76.8201C771.77 76.4505 771.716 76.0832 771.64 75.7201C771.611 75.5594 771.557 75.4042 771.48 75.2601C771.48 75.2601 771.48 75.2601 771.53 75.3601L771.59 75.4401C771.59 75.4401 771.53 75.3901 771.65 75.5001C771.84 75.656 772.048 75.7871 772.27 75.8901L772.49 75.9901C772.604 76.0371 772.721 76.0772 772.84 76.1101L773.31 76.2101C773.57 76.2323 773.831 76.2323 774.09 76.2101C774.817 76.1529 775.512 75.8854 776.09 75.4401C776.354 75.2274 776.589 74.9821 776.79 74.7101C776.929 74.5218 777.049 74.321 777.15 74.1101C777.224 73.9443 777.288 73.7739 777.34 73.6001C777.369 73.4982 777.393 73.3947 777.41 73.2901C777.441 73.1485 777.461 73.0048 777.47 72.8601V72.4401C777.47 72.3001 777.47 72.2301 777.47 72.2101V72.2901C777.47 72.4301 777.58 72.6401 777.65 72.8501C777.97 73.7201 778.34 74.7301 778.74 75.7201C781.9 83.7701 785.17 92.0701 787.27 100.89L786.64 101.21C785.12 99.5001 783.76 97.7101 782.44 95.8901C781.12 94.0701 779.85 92.2301 778.64 90.3501C776.201 86.586 773.984 82.6827 772 78.6601C771.52 77.6101 771 76.5901 770.58 75.3801C770.47 75.0701 770.36 74.7601 770.24 74.3801C770.24 74.1801 770.13 73.9601 770.06 73.6501C770.021 73.4385 769.994 73.2249 769.98 73.0101V72.7501V72.3901C769.992 72.2088 770.015 72.0284 770.05 71.8501C770.071 71.728 770.101 71.6076 770.14 71.4901C770.195 71.2981 770.265 71.1109 770.35 70.9301C770.454 70.7038 770.581 70.4892 770.73 70.2901C770.94 70.0004 771.189 69.7413 771.47 69.5201C772.073 69.0582 772.794 68.7773 773.55 68.7101C773.826 68.6871 774.104 68.6871 774.38 68.7101C774.556 68.7362 774.729 68.7729 774.9 68.8201L775.3 68.9501L775.57 69.0701C775.932 69.235 776.269 69.4505 776.57 69.7101C776.804 69.9024 777.018 70.1168 777.21 70.3501C777.3 70.4401 777.33 70.4801 777.45 70.6201L777.76 71.0301C777.96 71.3201 778.08 71.5601 778.24 71.8301C778.658 72.682 778.928 73.5982 779.04 74.5401C779.129 75.2699 779.166 76.0051 779.15 76.7401C779.094 78.031 778.933 79.3152 778.67 80.5801C778.186 82.933 777.476 85.2337 776.55 87.4501C775.615 89.6207 774.452 91.6856 773.08 93.6101C771.722 95.5492 770.185 97.3571 768.49 99.0101C767.622 99.869 766.651 100.618 765.6 101.24C764.462 101.937 763.144 102.285 761.81 102.24C761.125 102.203 760.45 102.058 759.81 101.81C759.187 101.546 758.596 101.211 758.05 100.81C757.012 100.075 756.066 99.2189 755.23 98.2601C753.404 96.313 752.172 93.8842 751.68 91.2601C751.243 88.5231 751.699 85.7179 752.98 83.2601C754.123 80.9943 755.676 78.9599 757.56 77.2601C759.316 75.6552 761.276 74.29 763.39 73.2001C765.45 72.1001 767.655 71.2988 769.94 70.8201L770.21 71.6001Z" fill="black"/>
</g>
<defs>
<clipPath id="clip0">
<rect width="823.87" height="159.29" fill="white"/>
</clipPath>
</defs>
</svg>
